<svg id="svg" version="1.1" xmlns="http://www.w3.org/2000/svg" xmlns:xlink="http://www.w3.org/1999/xlink" width="400" height="363.921568627451" viewBox="0, 0, 400,363.921568627451"><g id="svgg"><path id="path0" d="M39.113 14.285 C 39.018 14.536,38.982 87.871,39.033 177.252 L 39.126 339.763 202.002 339.763 L 364.877 339.763 364.877 176.888 L 364.877 14.013 202.082 13.921 C 72.036 13.848,39.251 13.922,39.113 14.285 M209.463 45.511 C 292.512 52.567,328.023 154.602,267.120 211.183 C 213.523 260.976,125.680 234.275,108.797 163.057 C 93.870 100.093,145.284 40.058,209.463 45.511 M192.357 49.020 C 155.018 53.796,126.176 77.080,114.155 112.151 C 107.819 130.635,108.175 154.745,115.043 172.338 C 117.934 179.745,118.553 179.928,121.916 174.362 C 124.283 170.444,124.333 170.124,123.191 166.244 C 112.389 129.553,125.479 92.656,156.688 71.825 C 166.659 65.170,181.156 59.714,181.548 62.469 C 181.714 63.629,180.349 64.495,175.913 66.045 C 137.839 79.351,115.511 119.798,124.700 158.816 C 126.719 167.391,125.680 168.345,140.113 144.677 C 143.043 139.873,147.298 132.912,149.568 129.208 C 151.838 125.505,155.497 119.527,157.698 115.924 C 159.900 112.320,162.520 108.062,163.521 106.460 C 167.048 100.815,176.428 85.336,177.018 84.185 C 178.868 80.580,176.302 80.890,169.178 85.134 C 150.615 96.192,138.831 115.065,137.248 136.275 C 136.711 143.475,133.940 145.013,133.940 138.111 C 133.940 112.121,151.426 88.071,178.500 76.824 C 182.998 74.955,182.603 75.315,185.460 70.478 C 186.777 68.248,188.996 64.622,190.392 62.420 C 199.006 48.834,199.105 48.157,192.357 49.020 M207.011 49.274 C 206.095 50.190,206.636 51.426,211.151 58.729 C 213.396 62.361,216.365 67.216,217.749 69.518 C 221.040 74.991,221.088 75.035,225.803 77.011 C 247.359 86.044,261.468 101.287,267.531 122.091 C 270.226 131.340,270.896 141.947,268.785 141.947 C 267.635 141.947,267.068 140.172,266.583 135.052 C 264.685 115.023,254.133 97.670,237.041 86.471 C 231.144 82.607,226.657 80.768,226.177 82.018 C 225.874 82.806,228.932 88.270,235.219 98.176 C 237.095 101.131,240.565 106.742,242.930 110.646 C 245.296 114.550,249.147 120.855,251.490 124.659 C 253.832 128.462,257.290 134.080,259.175 137.144 C 261.060 140.207,265.188 146.996,268.347 152.230 C 276.927 166.444,277.326 166.742,278.936 160.146 C 288.805 119.700,266.105 78.607,226.680 65.547 C 223.712 64.564,222.303 63.538,222.455 62.469 C 222.948 59.013,241.772 67.175,252.448 75.475 C 279.721 96.676,290.676 130.866,281.130 164.994 C 279.632 170.348,279.643 170.478,281.902 174.346 C 285.339 180.231,285.978 180.100,288.721 172.950 C 306.664 126.188,281.588 71.878,233.917 54.256 C 223.527 50.415,208.629 47.656,207.011 49.274 M197.558 57.416 C 194.690 61.759,192.379 65.807,191.944 67.253 C 191.530 68.627,191.447 81.628,191.447 144.499 C 191.447 220.740,191.420 222.384,190.194 222.384 C 187.797 222.384,187.823 223.224,187.809 146.679 C 187.801 102.986,187.666 76.775,187.448 76.433 C 186.931 75.622,186.055 76.314,184.541 78.731 C 183.835 79.858,182.451 82.054,181.466 83.611 C 179.446 86.803,175.922 92.525,169.411 103.185 C 166.966 107.188,163.199 113.330,161.039 116.833 C 158.880 120.337,154.629 127.298,151.593 132.302 C 148.558 137.307,144.196 144.431,141.902 148.135 C 139.608 151.838,136.919 156.216,135.926 157.865 C 134.934 159.513,132.912 162.870,131.434 165.326 C 129.955 167.782,127.398 171.920,125.751 174.522 C 120.473 182.861,120.205 183.673,121.738 186.698 C 128.439 199.921,144.732 215.691,159.312 223.065 C 163.719 225.294,163.785 225.074,163.785 208.226 C 163.785 193.918,163.915 192.520,165.318 191.769 C 166.822 190.964,166.870 191.429,167.061 208.679 C 167.269 227.547,167.085 226.528,170.521 227.813 C 175.929 229.837,175.432 234.392,175.432 182.801 C 175.432 134.853,175.389 135.909,177.321 136.188 C 178.639 136.379,178.634 136.201,178.672 183.331 C 178.698 215.616,178.823 228.791,179.112 229.424 C 180.323 232.082,198.291 234.554,199.709 232.258 C 200.186 231.486,200.491 57.209,200.017 56.442 C 199.529 55.653,198.436 56.086,197.558 57.416 M204.012 56.688 C 203.604 57.722,203.803 231.496,204.214 232.263 C 205.026 233.781,216.510 232.945,222.786 230.911 C 225.469 230.041,225.296 233.308,225.298 183.695 C 225.300 138.471,225.364 136.124,226.592 136.124 C 228.641 136.124,228.569 134.423,228.570 182.597 C 228.571 208.674,228.709 227.066,228.907 227.588 C 229.385 228.843,230.349 228.958,232.964 228.072 C 236.977 226.712,236.731 227.909,236.943 208.727 C 237.127 192.007,237.203 191.151,238.470 191.637 C 239.917 192.192,240.030 193.281,240.218 208.492 C 240.439 226.253,240.107 225.363,245.496 222.670 C 257.000 216.923,270.926 204.189,278.849 192.174 C 284.390 183.773,284.380 184.372,279.106 176.095 C 277.686 173.868,274.601 168.835,272.249 164.912 C 269.898 160.989,266.536 155.487,264.778 152.684 C 263.019 149.882,259.744 144.559,257.499 140.855 C 248.289 125.661,237.969 108.857,236.935 107.370 C 236.587 106.870,235.075 104.331,233.575 101.729 C 226.804 89.980,217.386 75.523,216.503 75.523 L 215.651 75.523 215.469 147.771 C 215.271 226.155,215.372 222.384,213.470 222.384 C 212.206 222.384,212.193 221.618,212.173 146.248 C 212.151 61.015,212.363 67.194,209.290 62.147 C 205.604 56.092,204.641 55.096,204.012 56.688 M113.644 261.965 C 114.166 262.516,116.022 265.505,117.767 268.608 C 119.513 271.711,121.406 275.068,121.974 276.069 C 123.138 278.119,123.299 279.571,122.440 280.284 C 121.415 281.134,120.178 279.953,117.838 275.887 C 116.628 273.785,114.515 270.112,113.142 267.724 C 110.876 263.782,110.218 261.878,110.889 261.207 C 111.434 260.662,112.751 261.025,113.644 261.965 M94.252 267.908 C 97.911 268.751,99.551 270.395,98.140 271.806 C 97.598 272.349,97.329 272.339,94.727 271.684 C 88.261 270.058,82.643 271.866,79.689 276.524 C 72.604 287.695,81.738 301.148,93.988 297.587 C 97.961 296.432,100.031 297.489,97.823 299.545 C 94.677 302.477,85.286 301.935,80.420 298.541 C 65.351 288.032,76.306 263.772,94.252 267.908 M289.132 268.060 C 292.024 268.673,293.358 269.418,293.358 270.423 C 293.358 271.678,292.196 271.942,289.468 271.306 C 284.248 270.089,279.891 271.955,279.891 275.408 C 279.891 278.166,281.331 279.460,287.317 282.080 C 295.753 285.774,298.162 291.275,294.058 297.470 C 291.109 301.923,280.794 302.781,276.537 298.929 C 274.499 297.084,276.487 295.953,279.665 297.150 C 286.396 299.683,292.259 297.351,292.264 292.139 C 292.268 288.832,290.578 287.166,284.806 284.780 C 278.075 281.998,276.136 280.010,276.136 275.887 C 276.136 269.922,281.805 266.508,289.132 268.060 M171.902 268.405 C 182.258 272.099,179.093 287.534,167.979 287.534 C 163.559 287.534,163.057 288.233,163.057 294.392 C 163.057 298.972,162.646 300.273,161.198 300.273 C 159.588 300.273,159.418 298.748,159.418 284.294 C 159.418 270.708,159.540 269.275,160.777 268.335 C 161.620 267.695,170.061 267.749,171.902 268.405 M207.643 268.280 C 212.202 269.521,214.559 272.658,214.559 277.484 C 214.558 283.924,211.688 286.841,204.603 287.600 C 199.852 288.108,199.818 288.152,199.818 293.780 C 199.818 298.737,199.344 300.273,197.816 300.273 C 195.701 300.273,195.592 298.975,196.057 279.395 C 196.352 266.963,195.880 267.879,201.979 267.882 C 204.294 267.883,206.843 268.062,207.643 268.280 M256.253 268.551 C 258.567 270.425,256.268 271.156,248.060 271.156 C 242.036 271.156,241.308 271.223,240.532 271.851 L 239.672 272.547 239.672 284.398 C 239.672 299.394,238.634 297.842,248.834 298.089 C 256.756 298.281,257.458 298.453,256.846 300.047 C 256.200 301.731,238.872 302.002,237.225 300.354 L 236.397 299.525 236.397 284.398 L 236.397 269.271 237.256 268.576 C 238.548 267.529,254.965 267.508,256.253 268.551 M326.328 268.823 C 329.403 270.324,328.004 272.241,324.500 271.328 C 319.096 269.921,314.254 271.990,314.358 275.662 C 314.430 278.182,316.271 279.682,322.475 282.270 C 329.650 285.264,332.280 290.606,329.377 296.295 C 326.720 301.503,318.045 303.104,312.047 299.493 C 308.579 297.405,311.023 295.790,315.196 297.412 C 320.909 299.633,326.362 297.327,326.761 292.522 C 327.046 289.083,325.556 287.367,320.390 285.188 C 311.485 281.433,309.038 278.005,311.544 272.793 C 313.709 268.291,321.147 266.293,326.328 268.823 M141.061 269.484 C 141.323 270.527,141.555 270.060,135.845 280.013 C 130.299 289.678,130.336 289.580,130.316 294.785 C 130.297 299.866,129.514 301.321,127.690 299.671 C 126.789 298.855,126.702 289.738,127.575 287.649 C 128.380 285.722,137.210 270.388,138.068 269.427 C 139.087 268.285,140.768 268.317,141.061 269.484 M164.099 271.851 C 162.896 272.825,162.762 282.199,163.933 283.492 C 166.525 286.357,173.839 282.973,174.541 278.585 C 175.366 273.421,168.015 268.680,164.099 271.851 M200.555 271.874 C 199.001 273.428,198.956 282.318,200.495 283.563 C 204.069 286.454,211.185 282.556,211.185 277.707 C 211.185 272.966,203.616 268.813,200.555 271.874 M255.424 283.733 C 257.644 285.288,255.722 286.442,250.915 286.442 C 246.906 286.442,245.279 285.822,245.791 284.488 C 246.317 283.118,253.718 282.538,255.424 283.733 M212.273 294.359 C 213.884 296.066,219.108 305.051,219.108 306.115 C 219.108 308.056,217.316 308.268,215.927 306.492 C 214.143 304.212,209.281 295.694,209.281 294.848 C 209.281 293.018,210.777 292.773,212.273 294.359 " stroke="none" fill="#e4e4e4" fill-rule="evenodd"></path><path id="path1" d="M0.000 181.984 L 0.000 363.967 200.000 363.967 L 400.000 363.967 400.000 181.984 L 400.000 0.000 200.000 0.000 L 0.000 0.000 0.000 181.984 M366.231 10.207 C 366.976 10.414,367.836 10.941,368.142 11.378 C 368.640 12.089,368.699 29.662,368.699 176.986 L 368.699 341.798 367.835 342.663 C 366.474 344.023,371.967 343.984,200.463 343.873 L 37.141 343.767 36.132 342.758 L 35.123 341.749 35.123 176.909 L 35.123 12.070 35.987 11.150 C 36.462 10.645,37.281 10.165,37.806 10.083 C 40.134 9.725,364.935 9.847,366.231 10.207 " stroke="none" fill="#0c0c0c" fill-rule="evenodd"></path><path id="path2" d="M193.631 45.522 C 116.743 51.920,79.144 143.144,128.845 202.703 C 186.872 272.239,300.731 228.026,297.591 137.177 C 295.713 82.846,248.225 40.979,193.631 45.522 M196.451 49.001 C 198.244 49.481,197.373 51.409,190.392 62.420 C 188.996 64.622,186.777 68.248,185.460 70.478 C 182.603 75.315,182.998 74.955,178.500 76.824 C 151.426 88.071,133.940 112.121,133.940 138.111 C 133.940 145.013,136.711 143.475,137.248 136.275 C 138.831 115.065,150.615 96.192,169.178 85.134 C 176.302 80.890,178.868 80.580,177.018 84.185 C 176.428 85.336,167.048 100.815,163.521 106.460 C 162.520 108.062,159.900 112.320,157.698 115.924 C 155.497 119.527,151.838 125.505,149.568 129.208 C 147.298 132.912,143.043 139.873,140.113 144.677 C 125.680 168.345,126.719 167.391,124.700 158.816 C 115.511 119.798,137.839 79.351,175.913 66.045 C 180.349 64.495,181.714 63.629,181.548 62.469 C 181.156 59.714,166.659 65.170,156.688 71.825 C 125.479 92.656,112.389 129.553,123.191 166.244 C 124.333 170.124,124.283 170.444,121.916 174.362 C 118.553 179.928,117.934 179.745,115.043 172.338 C 109.103 157.122,107.934 135.963,112.113 119.280 C 121.109 83.362,150.280 56.017,185.970 50.046 C 193.730 48.748,195.024 48.619,196.451 49.001 M217.834 49.870 C 274.158 59.524,309.018 120.052,288.721 172.950 C 285.978 180.100,285.339 180.231,281.902 174.346 C 279.643 170.478,279.632 170.348,281.130 164.994 C 290.676 130.866,279.721 96.676,252.448 75.475 C 241.772 67.175,222.948 59.013,222.455 62.469 C 222.303 63.538,223.712 64.564,226.680 65.547 C 266.105 78.607,288.805 119.700,278.936 160.146 C 277.326 166.742,276.927 166.444,268.347 152.230 C 265.188 146.996,261.060 140.207,259.175 137.144 C 257.290 134.080,253.832 128.462,251.490 124.659 C 249.147 120.855,245.296 114.550,242.930 110.646 C 240.565 106.742,237.095 101.131,235.219 98.176 C 228.932 88.270,225.874 82.806,226.177 82.018 C 226.657 80.768,231.144 82.607,237.041 86.471 C 254.133 97.670,264.685 115.023,266.583 135.052 C 267.068 140.172,267.635 141.947,268.785 141.947 C 270.896 141.947,270.226 131.340,267.531 122.091 C 261.468 101.287,247.359 86.044,225.803 77.011 C 221.088 75.035,221.040 74.991,217.749 69.518 C 216.365 67.216,213.396 62.361,211.151 58.729 C 204.465 47.913,204.689 47.617,217.834 49.870 M200.017 56.442 C 200.491 57.209,200.186 231.486,199.709 232.258 C 198.291 234.554,180.323 232.082,179.112 229.424 C 178.823 228.791,178.698 215.616,178.672 183.331 C 178.634 136.201,178.639 136.379,177.321 136.188 C 175.389 135.909,175.432 134.853,175.432 182.801 C 175.432 234.392,175.929 229.837,170.521 227.813 C 167.085 226.528,167.269 227.547,167.061 208.679 C 166.870 191.429,166.822 190.964,165.318 191.769 C 163.915 192.520,163.785 193.918,163.785 208.226 C 163.785 225.074,163.719 225.294,159.312 223.065 C 144.732 215.691,128.439 199.921,121.738 186.698 C 120.205 183.673,120.473 182.861,125.751 174.522 C 127.398 171.920,129.955 167.782,131.434 165.326 C 132.912 162.870,134.934 159.513,135.926 157.865 C 136.919 156.216,139.608 151.838,141.902 148.135 C 144.196 144.431,148.558 137.307,151.593 132.302 C 154.629 127.298,158.880 120.337,161.039 116.833 C 163.199 113.330,166.966 107.188,169.411 103.185 C 175.922 92.525,179.446 86.803,181.466 83.611 C 182.451 82.054,183.835 79.858,184.541 78.731 C 186.055 76.314,186.931 75.622,187.448 76.433 C 187.666 76.775,187.801 102.986,187.809 146.679 C 187.823 223.224,187.797 222.384,190.194 222.384 C 191.420 222.384,191.447 220.740,191.447 144.499 C 191.447 59.495,191.137 67.710,194.549 62.190 C 198.474 55.840,199.183 55.094,200.017 56.442 M206.130 57.234 C 209.464 61.669,211.560 65.866,211.858 68.699 C 212.020 70.250,212.162 105.147,212.173 146.248 C 212.193 221.618,212.206 222.384,213.470 222.384 C 215.372 222.384,215.271 226.155,215.469 147.771 L 215.651 75.523 216.503 75.523 C 217.386 75.523,226.804 89.980,233.575 101.729 C 235.075 104.331,236.587 106.870,236.935 107.370 C 237.969 108.857,248.289 125.661,257.499 140.855 C 259.744 144.559,263.019 149.882,264.778 152.684 C 266.536 155.487,269.898 160.989,272.249 164.912 C 274.601 168.835,277.686 173.868,279.106 176.095 C 284.380 184.372,284.390 183.773,278.849 192.174 C 270.926 204.189,257.000 216.923,245.496 222.670 C 240.107 225.363,240.439 226.253,240.218 208.492 C 240.030 193.281,239.917 192.192,238.470 191.637 C 237.203 191.151,237.127 192.007,236.943 208.727 C 236.731 227.909,236.977 226.712,232.964 228.072 C 230.349 228.958,229.385 228.843,228.907 227.588 C 228.709 227.066,228.571 208.674,228.570 182.597 C 228.569 134.423,228.641 136.124,226.592 136.124 C 225.364 136.124,225.300 138.471,225.298 183.695 C 225.296 216.619,225.185 228.780,224.879 229.453 C 223.731 231.971,205.392 234.465,204.214 232.263 C 203.803 231.496,203.604 57.722,204.012 56.688 C 204.392 55.726,205.141 55.919,206.130 57.234 M110.889 261.207 C 110.218 261.878,110.876 263.782,113.142 267.724 C 114.515 270.112,116.628 273.785,117.838 275.887 C 120.178 279.953,121.415 281.134,122.440 280.284 C 123.299 279.571,123.138 278.119,121.974 276.069 C 121.406 275.068,119.513 271.711,117.767 268.608 C 113.838 261.622,112.217 259.879,110.889 261.207 M85.095 268.219 C 69.748 273.125,69.533 295.875,84.787 300.675 C 90.139 302.359,98.635 300.920,98.635 298.330 C 98.635 296.930,97.095 296.684,93.988 297.587 C 81.738 301.148,72.604 287.695,79.689 276.524 C 82.643 271.866,88.261 270.058,94.727 271.684 C 97.329 272.339,97.598 272.349,98.140 271.806 C 101.060 268.887,91.353 266.218,85.095 268.219 M283.274 267.898 C 278.918 268.759,276.136 271.872,276.136 275.887 C 276.136 280.010,278.075 281.998,284.806 284.780 C 290.578 287.166,292.268 288.832,292.264 292.139 C 292.259 297.351,286.396 299.683,279.665 297.150 C 276.487 295.953,274.499 297.084,276.537 298.929 C 280.794 302.781,291.109 301.923,294.058 297.470 C 298.162 291.275,295.753 285.774,287.317 282.080 C 281.331 279.460,279.891 278.166,279.891 275.408 C 279.891 271.955,284.248 270.089,289.468 271.306 C 292.196 271.942,293.358 271.678,293.358 270.423 C 293.358 268.563,287.428 267.077,283.274 267.898 M160.777 268.335 C 159.540 269.275,159.418 270.708,159.418 284.294 C 159.418 298.748,159.588 300.273,161.198 300.273 C 162.646 300.273,163.057 298.972,163.057 294.392 C 163.057 288.233,163.559 287.534,167.979 287.534 C 179.093 287.534,182.258 272.099,171.902 268.405 C 170.061 267.749,161.620 267.695,160.777 268.335 M197.034 268.567 C 196.341 269.213,196.283 269.847,196.057 279.395 C 195.592 298.975,195.701 300.273,197.816 300.273 C 199.344 300.273,199.818 298.737,199.818 293.780 C 199.818 288.152,199.852 288.108,204.603 287.600 C 211.688 286.841,214.558 283.924,214.559 277.484 C 214.559 272.658,212.202 269.521,207.643 268.280 C 205.030 267.569,197.899 267.761,197.034 268.567 M237.256 268.576 L 236.397 269.271 236.397 284.398 L 236.397 299.525 237.225 300.354 C 238.872 302.002,256.200 301.731,256.846 300.047 C 257.458 298.453,256.756 298.281,248.834 298.089 C 238.634 297.842,239.672 299.394,239.672 284.398 L 239.672 272.547 240.532 271.851 C 241.308 271.223,242.036 271.156,248.060 271.156 C 256.268 271.156,258.567 270.425,256.253 268.551 C 254.965 267.508,238.548 267.529,237.256 268.576 M316.665 268.284 C 313.240 269.329,310.852 272.471,310.836 275.954 C 310.816 280.131,312.689 281.940,320.390 285.188 C 325.556 287.367,327.046 289.083,326.761 292.522 C 326.362 297.327,320.909 299.633,315.196 297.412 C 311.023 295.790,308.579 297.405,312.047 299.493 C 318.045 303.104,326.720 301.503,329.377 296.295 C 332.280 290.606,329.650 285.264,322.475 282.270 C 316.271 279.682,314.430 278.182,314.358 275.662 C 314.254 271.990,319.096 269.921,324.500 271.328 C 328.004 272.241,329.403 270.324,326.328 268.823 C 324.648 268.002,318.680 267.670,316.665 268.284 M138.068 269.427 C 137.210 270.388,128.380 285.722,127.575 287.649 C 126.702 289.738,126.789 298.855,127.690 299.671 C 129.514 301.321,130.297 299.866,130.316 294.785 C 130.336 289.580,130.299 289.678,135.845 280.013 C 141.555 270.060,141.323 270.527,141.061 269.484 C 140.768 268.317,139.087 268.285,138.068 269.427 M170.377 271.716 C 177.851 274.353,175.076 284.258,166.864 284.258 C 163.417 284.258,163.239 283.933,163.239 277.637 C 163.239 271.018,164.779 269.741,170.377 271.716 M206.406 271.570 C 214.334 274.224,212.043 284.258,203.510 284.258 C 199.990 284.258,199.663 283.797,199.513 278.620 C 199.305 271.432,200.955 269.745,206.406 271.570 M246.853 283.545 C 245.611 284.043,245.414 284.984,246.385 285.771 C 248.251 287.282,256.233 286.499,256.233 284.804 C 256.233 283.348,249.569 282.454,246.853 283.545 M209.524 293.600 C 208.680 294.444,212.468 302.071,215.927 306.492 C 217.316 308.268,219.108 308.056,219.108 306.115 C 219.108 305.051,213.884 296.066,212.273 294.359 C 211.386 293.418,210.069 293.055,209.524 293.600 " stroke="none" fill="#f6f6f6" fill-rule="evenodd"></path><path id="path3" d="M37.489 12.375 C 36.338 13.526,36.338 340.250,37.489 341.401 C 38.202 342.114,363.014 342.619,365.652 341.911 C 367.305 341.468,367.243 347.858,367.243 176.888 C 367.243 5.918,367.305 12.308,365.652 11.865 C 363.014 11.157,38.202 11.662,37.489 12.375 M364.877 176.888 L 364.877 339.763 202.002 339.763 L 39.126 339.763 39.033 177.252 C 38.982 87.871,39.018 14.536,39.113 14.285 C 39.251 13.922,72.036 13.848,202.082 13.921 L 364.877 14.013 364.877 176.888 " stroke="none" fill="#dcdcdc" fill-rule="evenodd"></path><path id="path4" d="M37.806 10.083 C 37.281 10.165,36.462 10.645,35.987 11.150 L 35.123 12.070 35.123 176.909 L 35.123 341.749 36.132 342.758 L 37.141 343.767 200.463 343.873 C 371.967 343.984,366.474 344.023,367.835 342.663 L 368.699 341.798 368.699 176.986 C 368.699 29.662,368.640 12.089,368.142 11.378 C 367.836 10.941,366.976 10.414,366.231 10.207 C 364.935 9.847,40.134 9.725,37.806 10.083 M365.652 11.865 C 367.305 12.308,367.243 5.918,367.243 176.888 C 367.243 347.858,367.305 341.468,365.652 341.911 C 363.014 342.619,38.202 342.114,37.489 341.401 C 36.338 340.250,36.338 13.526,37.489 12.375 C 38.202 11.662,363.014 11.157,365.652 11.865 " stroke="none" fill="#3c8884" fill-rule="evenodd"></path></g></svg>