<svg id="splitsvg" version="1.1" xmlns="http://www.w3.org/2000/svg" xmlns:xlink="http://www.w3.org/1999/xlink" width="1380" height="786"><g id="svgg"><path id="path0" d="M36.397 176.888 L 36.397 342.493 202.002 342.493 L 367.607 342.493 367.607 176.888 L 367.607 11.283 202.002 11.283 L 36.397 11.283 36.397 176.888 M211.283 46.022 C 247.763 49.900,277.999 72.997,291.145 107.027 C 291.962 109.140,292.630 111.067,292.630 111.308 C 292.630 111.550,292.780 112.032,292.963 112.380 C 293.448 113.298,294.346 116.533,295.170 120.330 C 302.920 156.058,290.127 192.364,261.692 215.336 C 255.975 219.954,251.386 222.938,245.314 225.986 C 236.152 230.585,227.747 233.364,217.834 235.075 C 216.633 235.282,214.605 235.636,213.327 235.861 C 210.167 236.418,194.865 236.429,191.045 235.877 C 184.243 234.895,177.200 233.328,171.817 231.600 C 166.974 230.046,155.711 224.789,152.211 222.450 C 151.670 222.088,150.164 221.081,148.863 220.210 C 133.421 209.877,118.857 191.881,113.214 176.160 C 112.962 175.460,112.626 174.559,112.466 174.158 C 107.033 160.545,105.180 141.441,107.753 125.569 C 114.330 84.991,147.531 52.312,187.989 46.593 C 196.467 45.395,203.712 45.217,211.283 46.022 M193.449 48.591 C 188.592 49.060,187.647 49.197,183.258 50.066 C 178.423 51.022,175.362 51.930,167.971 54.598 C 156.255 58.828,141.101 69.496,132.276 79.728 C 131.490 80.640,130.432 81.868,129.926 82.458 C 129.420 83.048,128.195 84.677,127.202 86.078 C 126.210 87.480,125.266 88.790,125.105 88.990 C 120.156 95.130,112.754 112.590,111.064 122.111 C 110.850 123.312,110.585 124.786,110.473 125.387 C 109.253 131.957,108.791 144.676,109.559 150.577 C 110.294 156.228,110.609 157.949,111.933 163.562 C 113.011 168.127,117.181 179.762,118.125 180.834 C 118.247 180.972,118.891 179.992,122.490 174.193 L 124.953 170.224 123.941 167.096 C 122.471 162.550,122.401 162.316,121.964 160.419 C 121.745 159.468,121.404 157.994,121.208 157.143 C 119.157 148.269,119.426 132.225,121.793 122.293 C 126.109 104.185,137.045 87.089,151.228 76.281 C 153.230 74.756,155.091 73.323,155.364 73.098 C 157.038 71.715,165.063 67.251,168.699 65.679 C 176.378 62.360,182.342 60.617,182.904 61.528 C 183.205 62.014,180.678 64.422,179.865 64.424 C 178.844 64.427,171.077 67.324,167.425 69.065 C 146.268 79.146,130.781 98.396,124.456 122.475 C 121.031 135.511,121.837 152.785,126.518 166.684 C 126.707 167.245,126.936 166.919,130.849 160.510 C 132.010 158.608,133.778 155.742,134.777 154.140 C 135.777 152.539,136.880 150.737,137.227 150.136 C 138.835 147.358,142.140 141.982,143.085 140.608 C 143.660 139.771,144.131 138.991,144.131 138.876 C 144.131 138.760,145.032 137.268,146.133 135.562 C 147.234 133.855,148.135 132.388,148.135 132.301 C 148.135 132.215,148.930 130.869,149.902 129.311 C 154.044 122.671,158.885 114.817,159.054 114.462 C 159.257 114.035,161.912 109.712,164.531 105.543 C 165.477 104.038,166.578 102.237,166.978 101.540 C 167.378 100.843,168.612 98.799,169.720 96.997 C 174.915 88.555,177.138 84.915,177.932 83.553 C 178.406 82.740,179.102 81.640,179.479 81.109 C 180.629 79.487,180.268 79.343,177.703 80.401 C 154.212 90.088,138.631 111.504,136.898 136.488 C 136.662 139.903,136.404 141.355,135.867 142.311 C 132.347 148.575,134.540 126.259,138.326 117.288 C 138.516 116.838,138.819 116.101,139.000 115.651 C 142.911 105.889,149.848 96.248,157.780 89.550 C 160.428 87.314,167.442 82.257,167.895 82.257 C 167.999 82.257,169.040 81.715,170.211 81.054 C 172.734 79.628,178.573 77.106,180.919 76.429 C 182.588 75.947,183.122 75.390,184.867 72.308 C 185.225 71.674,186.631 69.354,187.991 67.152 C 190.725 62.723,196.001 54.091,196.664 52.963 C 196.897 52.566,197.553 51.534,198.120 50.668 C 199.047 49.256,199.219 47.969,198.465 48.089 C 198.308 48.114,196.051 48.340,193.449 48.591 M204.915 48.664 C 204.916 49.024,205.922 50.955,207.151 52.957 C 208.381 54.959,210.074 57.743,210.914 59.145 C 211.754 60.546,213.204 62.882,214.137 64.335 C 215.069 65.788,215.833 67.052,215.833 67.143 C 215.833 67.234,216.708 68.666,217.779 70.325 C 218.849 71.984,220.004 73.882,220.345 74.542 C 220.687 75.202,221.244 75.832,221.584 75.940 C 222.191 76.135,225.505 77.331,226.934 77.871 C 246.037 85.098,262.156 103.144,267.586 123.385 C 269.601 130.894,270.554 144.250,269.016 143.427 C 267.986 142.876,267.153 140.390,267.145 137.845 C 267.135 134.706,266.138 127.720,265.341 125.205 C 265.182 124.704,264.850 123.558,264.603 122.657 C 259.541 104.232,244.931 88.083,226.421 80.450 C 223.164 79.107,223.185 79.094,224.690 81.556 C 225.354 82.642,226.935 85.250,228.204 87.352 C 231.118 92.180,241.542 109.156,243.960 113.012 C 244.964 114.613,246.068 116.415,246.413 117.015 C 246.758 117.616,248.146 119.909,249.496 122.111 C 250.846 124.313,252.218 126.556,252.545 127.096 C 255.491 131.962,257.793 135.691,259.408 138.213 C 260.464 139.863,261.328 141.286,261.328 141.377 C 261.328 141.467,262.291 143.065,263.467 144.929 C 264.643 146.792,267.040 150.692,268.793 153.594 C 270.547 156.497,272.901 160.354,274.025 162.167 C 275.149 163.979,276.251 165.780,276.473 166.170 C 277.495 167.966,279.193 162.544,281.038 151.592 C 281.662 147.891,281.669 134.072,281.049 130.300 C 280.255 125.472,279.831 123.224,279.536 122.293 C 279.377 121.793,279.040 120.646,278.786 119.745 C 271.752 94.781,253.356 74.836,229.299 66.091 C 227.798 65.545,226.193 64.946,225.734 64.760 C 225.274 64.574,224.619 64.422,224.278 64.421 C 223.418 64.420,221.292 62.534,221.292 61.772 C 221.292 60.825,222.282 60.981,227.650 62.774 C 243.888 68.199,256.061 76.902,267.625 91.356 C 268.518 92.471,270.792 95.731,270.792 95.895 C 270.792 95.988,271.515 97.184,272.400 98.551 C 275.349 103.109,279.717 112.892,281.050 117.925 C 281.236 118.626,281.542 119.773,281.730 120.473 C 285.430 134.239,285.074 150.732,280.774 164.695 C 280.034 167.097,279.356 169.401,279.266 169.815 C 279.161 170.302,279.866 171.781,281.263 174.001 C 282.451 175.889,283.689 177.951,284.014 178.582 C 285.373 181.222,285.713 181.208,286.891 178.464 C 290.029 171.151,292.177 163.970,293.677 155.778 C 294.793 149.681,295.179 137.878,294.446 132.226 C 293.561 125.397,293.203 123.319,292.220 119.303 C 282.746 80.577,248.996 51.423,210.373 48.601 C 208.672 48.477,206.747 48.293,206.096 48.193 C 205.133 48.045,204.914 48.132,204.915 48.664 M198.928 54.322 C 198.140 55.573,196.052 58.968,194.289 61.866 L 191.083 67.135 191.083 145.878 C 191.083 220.477,191.050 224.615,190.450 224.499 C 190.102 224.432,189.766 224.052,189.703 223.654 C 189.641 223.256,189.449 222.602,189.277 222.202 C 189.105 221.802,188.867 221.170,188.747 220.798 C 188.626 220.427,188.529 186.901,188.531 146.297 C 188.533 75.925,188.458 70.205,187.563 72.679 C 187.432 73.042,187.043 73.749,186.699 74.249 C 186.354 74.750,185.749 75.732,185.354 76.433 C 184.959 77.134,183.573 79.427,182.275 81.529 C 180.977 83.631,179.369 86.251,178.702 87.352 C 178.035 88.453,176.726 90.582,175.793 92.084 C 174.860 93.585,173.192 96.288,172.086 98.089 C 170.981 99.891,168.374 104.131,166.294 107.513 C 164.214 110.894,162.253 114.114,161.938 114.668 C 161.622 115.223,161.107 116.069,160.792 116.549 C 160.055 117.674,152.686 129.764,149.860 134.486 C 148.661 136.488,146.749 139.600,145.609 141.401 C 144.469 143.203,142.991 145.578,142.325 146.679 C 140.029 150.472,135.116 158.517,132.657 162.511 C 119.114 184.509,119.604 183.632,120.208 184.809 C 127.031 198.098,139.797 211.703,153.182 219.951 C 157.537 222.634,163.492 225.702,163.785 225.414 C 163.885 225.316,164.049 217.887,164.149 208.905 C 164.287 196.527,164.441 192.464,164.786 192.120 C 165.036 191.870,165.241 191.382,165.241 191.036 C 165.241 190.395,166.291 189.099,166.577 189.386 C 166.664 189.473,166.723 197.797,166.707 207.884 C 166.676 228.098,166.546 226.994,169.063 227.793 C 169.864 228.048,170.846 228.400,171.247 228.578 C 172.733 229.235,175.259 229.950,175.523 229.788 C 175.673 229.696,175.796 208.997,175.796 183.790 L 175.796 137.961 176.615 135.951 C 177.066 134.845,177.598 133.995,177.798 134.062 C 178.038 134.141,178.194 150.679,178.254 182.455 L 178.347 230.728 179.710 231.083 C 185.093 232.487,190.190 233.242,196.269 233.536 L 200.546 233.744 200.546 142.895 C 200.546 92.929,200.505 52.047,200.454 52.047 C 200.403 52.047,199.717 53.071,198.928 54.322 M203.406 53.161 C 203.377 53.849,203.365 55.478,203.378 56.779 C 203.392 58.080,203.415 98.412,203.430 146.406 L 203.458 233.667 206.390 233.667 C 208.003 233.667,210.501 233.497,211.941 233.289 C 217.202 232.530,219.697 232.111,221.656 231.658 C 222.757 231.404,224.108 231.093,224.659 230.968 L 225.660 230.741 225.665 182.614 C 225.668 156.143,225.807 134.272,225.973 134.010 C 226.180 133.684,226.578 134.234,227.241 135.763 L 228.207 137.992 228.207 183.806 C 228.207 209.004,228.334 229.699,228.489 229.794 C 228.644 229.890,230.159 229.476,231.856 228.873 C 233.553 228.271,235.314 227.691,235.771 227.584 C 237.288 227.230,237.327 226.729,237.295 207.922 C 237.261 188.172,237.378 187.106,239.058 191.889 C 239.839 194.111,239.862 194.619,239.858 209.675 C 239.856 218.200,239.955 225.275,240.079 225.399 C 240.853 226.173,255.410 217.328,260.681 212.881 C 264.347 209.789,270.668 203.503,273.084 200.546 C 274.311 199.045,275.418 197.734,275.543 197.634 C 276.134 197.163,281.392 189.140,282.699 186.715 C 284.348 183.656,284.360 183.810,282.196 180.433 C 281.329 179.080,280.619 177.885,280.619 177.778 C 280.619 177.671,279.832 176.403,278.871 174.961 C 277.910 173.519,276.098 170.619,274.845 168.517 C 273.591 166.415,271.506 162.975,270.211 160.874 C 268.917 158.772,267.364 156.233,266.762 155.232 C 266.159 154.231,264.749 151.938,263.629 150.136 C 262.508 148.335,261.307 146.369,260.960 145.769 C 260.612 145.168,259.660 143.612,258.845 142.311 C 256.909 139.223,254.350 135.042,253.832 134.122 C 253.299 133.175,247.801 124.176,245.048 119.745 C 242.450 115.563,239.611 110.943,236.727 106.204 C 232.056 98.529,227.933 91.814,226.063 88.838 C 224.984 87.120,223.917 85.387,223.692 84.986 C 223.320 84.325,221.127 80.718,219.290 77.748 C 218.890 77.100,217.825 75.356,216.924 73.871 L 215.287 71.171 215.105 145.958 L 214.923 220.746 214.078 222.839 C 213.613 223.990,213.080 224.932,212.895 224.932 C 212.688 224.932,212.557 194.237,212.557 145.824 L 212.557 66.717 210.555 63.529 C 209.454 61.775,208.553 60.274,208.553 60.194 C 208.553 60.114,207.652 58.652,206.551 56.945 C 205.450 55.238,204.544 53.725,204.538 53.581 C 204.485 52.395,203.453 52.011,203.406 53.161 M112.916 261.237 C 113.226 261.588,115.157 264.823,117.208 268.426 C 119.259 272.029,121.492 275.942,122.170 277.120 C 123.427 279.307,123.480 280.148,122.418 281.030 C 121.762 281.575,120.884 280.696,119.570 278.178 C 119.173 277.419,117.658 274.780,116.203 272.315 C 114.748 269.850,113.558 267.787,113.558 267.731 C 113.558 267.674,112.739 266.251,111.738 264.569 C 110.737 262.887,109.919 261.306,109.918 261.056 C 109.918 260.354,112.261 260.497,112.916 261.237 M95.541 268.611 C 99.109 270.124,99.047 270.079,98.930 271.089 C 98.778 272.399,97.926 272.490,95.424 271.460 C 83.784 266.669,72.616 279.180,78.012 290.966 C 80.815 297.088,88.321 300.112,94.813 297.734 C 98.080 296.537,98.817 296.568,98.817 297.902 C 98.817 300.108,92.692 301.854,87.821 301.035 C 69.647 297.981,68.864 272.604,86.806 268.102 C 88.124 267.771,94.427 268.139,95.541 268.611 M291.811 269.073 C 293.736 269.720,294.086 269.969,294.086 270.690 C 294.086 271.906,293.305 272.051,290.908 271.283 C 287.200 270.094,282.456 270.461,280.786 272.066 C 277.197 275.513,279.112 279.171,285.919 281.872 C 293.392 284.837,295.359 286.921,295.359 291.871 C 295.359 296.898,293.023 299.661,287.620 301.022 C 282.651 302.275,273.067 298.459,275.697 296.276 C 276.179 295.876,276.546 295.949,277.990 296.728 C 284.533 300.260,291.255 298.850,292.558 293.672 C 293.621 289.449,291.622 286.984,285.039 284.400 C 278.383 281.787,276.478 279.891,276.470 275.869 C 276.457 269.308,283.385 266.239,291.811 269.073 M326.388 269.079 C 328.289 269.713,328.662 269.974,328.662 270.666 C 328.662 271.550,327.536 272.401,326.989 271.930 C 325.207 270.392,318.279 270.124,316.225 271.514 C 311.746 274.543,313.249 279.006,319.588 281.502 C 326.383 284.177,328.043 285.296,329.352 288.080 C 332.776 295.364,325.589 302.925,317.071 300.999 C 313.991 300.303,309.736 298.211,309.736 297.392 C 309.736 295.910,310.662 295.775,313.089 296.905 C 319.073 299.692,323.914 299.207,326.314 295.580 C 329.028 291.480,327.198 287.497,321.540 285.186 C 312.715 281.581,311.093 280.143,311.061 275.887 C 311.012 269.455,318.093 266.310,326.388 269.079 M141.725 268.543 C 141.826 268.707,141.563 269.403,141.139 270.089 C 139.780 272.289,134.304 281.798,134.304 281.956 C 134.304 282.041,133.731 283.006,133.030 284.101 C 132.329 285.196,131.756 286.187,131.756 286.302 C 131.756 286.417,131.388 287.028,130.937 287.660 C 130.193 288.704,130.102 289.337,129.936 294.631 L 129.754 300.455 128.662 300.455 L 127.571 300.455 127.473 294.449 L 127.375 288.444 130.293 283.402 C 131.899 280.629,133.212 278.279,133.212 278.181 C 133.212 278.082,133.516 277.567,133.888 277.035 C 134.260 276.504,134.974 275.332,135.475 274.431 C 135.976 273.530,136.840 271.975,137.396 270.974 C 137.951 269.973,138.567 268.949,138.765 268.699 C 139.164 268.193,141.435 268.074,141.725 268.543 M172.619 269.101 C 179.666 272.218,179.659 282.833,172.607 286.306 C 171.623 286.790,170.088 287.028,167.061 287.164 L 162.875 287.352 162.693 293.904 L 162.511 300.455 161.237 300.455 L 159.964 300.455 159.869 284.804 C 159.816 276.197,159.852 268.949,159.948 268.699 C 160.303 267.775,170.340 268.094,172.619 269.101 M207.717 268.659 C 210.568 269.821,211.155 270.193,212.353 271.593 C 215.563 275.343,215.007 281.797,211.199 284.994 C 209.189 286.680,207.435 287.158,203.227 287.165 C 198.767 287.171,199.102 286.559,199.095 294.722 L 199.090 300.637 197.816 300.637 L 196.542 300.637 196.542 284.440 L 196.542 268.244 201.621 268.244 C 204.586 268.244,207.123 268.417,207.717 268.659 M257.576 268.839 C 258.205 270.477,257.580 270.604,248.386 270.707 C 241.999 270.779,239.632 270.924,239.422 271.253 C 238.757 272.301,239.080 297.675,239.763 298.034 C 240.114 298.218,244.158 298.360,248.751 298.349 C 257.584 298.329,258.189 298.445,257.574 300.047 C 257.366 300.590,256.339 300.639,247.052 300.552 L 236.761 300.455 236.666 284.804 C 236.613 276.197,236.649 268.949,236.745 268.699 C 237.045 267.917,257.275 268.053,257.576 268.839 M162.693 277.739 L 162.693 284.687 166.634 284.564 C 172.417 284.383,175.037 282.293,175.060 277.843 C 175.087 272.729,172.678 270.792,166.289 270.792 L 162.693 270.792 162.693 277.739 M199.266 271.611 C 199.155 272.061,199.111 275.196,199.168 278.577 L 199.272 284.724 202.828 284.651 C 211.118 284.484,214.735 278.270,209.695 272.855 C 207.643 270.651,199.735 269.707,199.266 271.611 M256.415 284.804 L 256.415 285.896 250.960 285.896 C 245.988 285.896,245.495 285.838,245.379 285.238 C 245.061 283.588,245.350 283.505,251.039 283.612 L 256.415 283.712 256.415 284.804 M212.675 295.450 C 216.652 301.677,219.863 307.321,219.688 307.778 C 219.009 309.548,217.296 308.156,214.481 303.549 C 213.564 302.047,211.846 299.281,210.664 297.401 C 208.367 293.747,208.253 292.994,210.000 292.994 C 210.968 292.994,211.302 293.301,212.675 295.450  M -25 0 L -5 0 L -5 20 L -25 20 Z M 405 0 L 425 0 L 425 20 L 405 20 Z" stroke="none" fill="#e4e4e4" fill-rule="evenodd" transform="translate(30,0)"></path><path id="path1" d="M0.000 181.984 L 0.000 363.967 200.000 363.967 L 400.000 363.967 400.000 181.984 L 400.000 0.000 200.000 0.000 L 0.000 0.000 0.000 181.984 M367.971 176.888 L 367.971 342.857 202.002 342.857 L 36.033 342.857 36.033 176.888 L 36.033 10.919 202.002 10.919 L 367.971 10.919 367.971 176.888  M -25 0 L -5 0 L -5 20 L -25 20 Z M 405 0 L 425 0 L 425 20 L 405 20 Z" stroke="none" fill="#0c0c0c" fill-rule="evenodd" transform="translate(490,0)"></path><path id="path2" d="M193.449 45.885 C 149.988 50.950,117.808 79.675,108.460 121.747 C 104.913 137.713,106.569 159.382,112.466 174.158 C 112.626 174.559,112.962 175.460,113.214 176.160 C 118.857 191.881,133.421 209.877,148.863 220.210 C 150.164 221.081,151.670 222.088,152.211 222.450 C 161.432 228.614,176.263 233.742,191.045 235.877 C 194.865 236.429,210.167 236.418,213.327 235.861 C 214.605 235.636,216.633 235.282,217.834 235.075 C 227.747 233.364,236.152 230.585,245.314 225.986 C 251.386 222.938,255.975 219.954,261.692 215.336 C 290.127 192.364,302.920 156.058,295.170 120.330 C 294.346 116.533,293.448 113.298,292.963 112.380 C 292.780 112.032,292.630 111.550,292.630 111.308 C 292.630 110.470,289.651 103.163,287.611 98.999 C 274.357 71.939,248.685 52.467,219.190 47.103 C 211.286 45.665,199.940 45.128,193.449 45.885 M198.951 48.570 C 199.062 48.859,198.688 49.803,198.120 50.668 C 197.553 51.534,196.897 52.566,196.664 52.963 C 196.001 54.091,190.725 62.723,187.991 67.152 C 186.631 69.354,185.225 71.674,184.867 72.308 C 183.122 75.390,182.588 75.947,180.919 76.429 C 178.573 77.106,172.734 79.628,170.211 81.054 C 169.040 81.715,167.999 82.257,167.895 82.257 C 167.442 82.257,160.428 87.314,157.780 89.550 C 149.848 96.248,142.911 105.889,139.000 115.651 C 138.819 116.101,138.516 116.838,138.326 117.288 C 135.441 124.124,132.711 143.585,134.637 143.585 C 135.806 143.585,136.573 141.178,136.898 136.488 C 138.631 111.504,154.212 90.088,177.703 80.401 C 180.268 79.343,180.629 79.487,179.479 81.109 C 179.102 81.640,178.406 82.740,177.932 83.553 C 177.138 84.915,174.915 88.555,169.720 96.997 C 168.612 98.799,167.378 100.843,166.978 101.540 C 166.578 102.237,165.477 104.038,164.531 105.543 C 161.912 109.712,159.257 114.035,159.054 114.462 C 158.885 114.817,154.044 122.671,149.902 129.311 C 148.930 130.869,148.135 132.215,148.135 132.301 C 148.135 132.388,147.234 133.855,146.133 135.562 C 145.032 137.268,144.131 138.760,144.131 138.876 C 144.131 138.991,143.660 139.771,143.085 140.608 C 142.140 141.982,138.835 147.358,137.227 150.136 C 136.880 150.737,135.777 152.539,134.777 154.140 C 133.778 155.742,132.010 158.608,130.849 160.510 C 126.936 166.919,126.707 167.245,126.518 166.684 C 122.183 153.812,121.148 138.141,123.791 125.387 C 129.179 99.392,147.841 76.644,171.429 67.319 C 175.353 65.768,179.263 64.426,179.865 64.424 C 180.678 64.422,183.205 62.014,182.904 61.528 C 182.342 60.617,176.378 62.360,168.699 65.679 C 165.063 67.251,157.038 71.715,155.364 73.098 C 155.091 73.323,153.230 74.756,151.228 76.281 C 137.953 86.398,127.985 101.259,122.686 118.835 C 119.552 129.230,118.866 147.012,121.208 157.143 C 121.404 157.994,121.745 159.468,121.964 160.419 C 122.401 162.316,122.471 162.550,123.941 167.096 L 124.953 170.224 122.490 174.193 C 118.891 179.992,118.247 180.972,118.125 180.834 C 117.181 179.762,113.011 168.127,111.933 163.562 C 110.609 157.949,110.294 156.228,109.559 150.577 C 108.791 144.676,109.253 131.957,110.473 125.387 C 110.585 124.786,110.850 123.312,111.064 122.111 C 112.754 112.590,120.156 95.130,125.105 88.990 C 125.266 88.790,126.210 87.480,127.202 86.078 C 128.195 84.677,129.420 83.048,129.926 82.458 C 130.432 81.868,131.490 80.640,132.276 79.728 C 141.101 69.496,156.255 58.828,167.971 54.598 C 175.362 51.930,178.423 51.022,183.258 50.066 C 187.647 49.197,188.592 49.060,193.449 48.591 C 196.051 48.340,198.308 48.114,198.465 48.089 C 198.621 48.064,198.840 48.280,198.951 48.570 M210.373 48.601 C 248.996 51.423,282.746 80.577,292.220 119.303 C 293.203 123.319,293.561 125.397,294.446 132.226 C 296.204 145.790,293.309 163.508,286.891 178.464 C 285.713 181.208,285.373 181.222,284.014 178.582 C 283.689 177.951,282.451 175.889,281.263 174.001 C 279.866 171.781,279.161 170.302,279.266 169.815 C 279.356 169.401,280.034 167.097,280.774 164.695 C 285.074 150.732,285.430 134.239,281.730 120.473 C 281.542 119.773,281.236 118.626,281.050 117.925 C 279.717 112.892,275.349 103.109,272.400 98.551 C 271.515 97.184,270.792 95.988,270.792 95.895 C 270.792 95.731,268.518 92.471,267.625 91.356 C 256.061 76.902,243.888 68.199,227.650 62.774 C 222.282 60.981,221.292 60.825,221.292 61.772 C 221.292 62.534,223.418 64.420,224.278 64.421 C 224.619 64.422,225.274 64.574,225.734 64.760 C 226.193 64.946,227.798 65.545,229.299 66.091 C 253.356 74.836,271.752 94.781,278.786 119.745 C 279.040 120.646,279.377 121.793,279.536 122.293 C 279.831 123.224,280.255 125.472,281.049 130.300 C 281.669 134.072,281.662 147.891,281.038 151.592 C 279.193 162.544,277.495 167.966,276.473 166.170 C 276.251 165.780,275.149 163.979,274.025 162.167 C 272.901 160.354,270.547 156.497,268.793 153.594 C 267.040 150.692,264.643 146.792,263.467 144.929 C 262.291 143.065,261.328 141.467,261.328 141.377 C 261.328 141.286,260.464 139.863,259.408 138.213 C 257.793 135.691,255.491 131.962,252.545 127.096 C 252.218 126.556,250.846 124.313,249.496 122.111 C 248.146 119.909,246.758 117.616,246.413 117.015 C 246.068 116.415,244.964 114.613,243.960 113.012 C 241.542 109.156,231.118 92.180,228.204 87.352 C 226.935 85.250,225.354 82.642,224.690 81.556 C 223.185 79.094,223.164 79.107,226.421 80.450 C 244.931 88.083,259.541 104.232,264.603 122.657 C 264.850 123.558,265.182 124.704,265.341 125.205 C 266.138 127.720,267.135 134.706,267.145 137.845 C 267.153 140.390,267.986 142.876,269.016 143.427 C 270.554 144.250,269.601 130.894,267.586 123.385 C 262.156 103.144,246.037 85.098,226.934 77.871 C 225.505 77.331,222.191 76.135,221.584 75.940 C 221.244 75.832,220.687 75.202,220.345 74.542 C 220.004 73.882,218.849 71.984,217.779 70.325 C 216.708 68.666,215.833 67.234,215.833 67.143 C 215.833 67.052,215.069 65.788,214.137 64.335 C 213.204 62.882,211.754 60.546,210.914 59.145 C 210.074 57.743,208.381 54.959,207.151 52.957 C 204.537 48.700,204.366 47.926,206.096 48.193 C 206.747 48.293,208.672 48.477,210.373 48.601 M200.546 142.895 L 200.546 233.744 196.269 233.536 C 190.190 233.242,185.093 232.487,179.710 231.083 L 178.347 230.728 178.254 182.455 C 178.194 150.679,178.038 134.141,177.798 134.062 C 177.598 133.995,177.066 134.845,176.615 135.951 L 175.796 137.961 175.796 183.790 C 175.796 208.997,175.673 229.696,175.523 229.788 C 175.259 229.950,172.733 229.235,171.247 228.578 C 170.846 228.400,169.864 228.048,169.063 227.793 C 166.546 226.994,166.676 228.098,166.707 207.884 C 166.723 197.797,166.664 189.473,166.577 189.386 C 166.291 189.099,165.241 190.395,165.241 191.036 C 165.241 191.382,165.036 191.870,164.786 192.120 C 164.441 192.464,164.287 196.527,164.149 208.905 C 164.049 217.887,163.885 225.316,163.785 225.414 C 163.492 225.702,157.537 222.634,153.182 219.951 C 139.797 211.703,127.031 198.098,120.208 184.809 C 119.604 183.632,119.114 184.509,132.657 162.511 C 135.116 158.517,140.029 150.472,142.325 146.679 C 142.991 145.578,144.469 143.203,145.609 141.401 C 146.749 139.600,148.661 136.488,149.860 134.486 C 152.686 129.764,160.055 117.674,160.792 116.549 C 161.107 116.069,161.622 115.223,161.938 114.668 C 162.253 114.114,164.214 110.894,166.294 107.513 C 168.374 104.131,170.981 99.891,172.086 98.089 C 173.192 96.288,174.860 93.585,175.793 92.084 C 176.726 90.582,178.035 88.453,178.702 87.352 C 179.369 86.251,180.977 83.631,182.275 81.529 C 183.573 79.427,184.959 77.134,185.354 76.433 C 185.749 75.732,186.354 74.750,186.699 74.249 C 187.043 73.749,187.432 73.042,187.563 72.679 C 188.458 70.205,188.533 75.925,188.531 146.297 C 188.529 186.901,188.626 220.427,188.747 220.798 C 188.867 221.170,189.105 221.802,189.277 222.202 C 189.449 222.602,189.641 223.256,189.703 223.654 C 189.766 224.052,190.102 224.432,190.450 224.499 C 191.050 224.615,191.083 220.477,191.083 145.878 L 191.083 67.135 194.289 61.866 C 198.165 55.496,200.330 52.047,200.454 52.047 C 200.505 52.047,200.546 92.929,200.546 142.895 M204.538 53.581 C 204.544 53.725,205.450 55.238,206.551 56.945 C 207.652 58.652,208.553 60.114,208.553 60.194 C 208.553 60.274,209.454 61.775,210.555 63.529 L 212.557 66.717 212.557 145.824 C 212.557 194.237,212.688 224.932,212.895 224.932 C 213.080 224.932,213.613 223.990,214.078 222.839 L 214.923 220.746 215.105 145.958 L 215.287 71.171 216.924 73.871 C 217.825 75.356,218.890 77.100,219.290 77.748 C 221.127 80.718,223.320 84.325,223.692 84.986 C 223.917 85.387,224.984 87.120,226.063 88.838 C 227.933 91.814,232.056 98.529,236.727 106.204 C 239.611 110.943,242.450 115.563,245.048 119.745 C 247.801 124.176,253.299 133.175,253.832 134.122 C 254.350 135.042,256.909 139.223,258.845 142.311 C 259.660 143.612,260.612 145.168,260.960 145.769 C 261.307 146.369,262.508 148.335,263.629 150.136 C 264.749 151.938,266.159 154.231,266.762 155.232 C 267.364 156.233,268.917 158.772,270.211 160.874 C 271.506 162.975,273.591 166.415,274.845 168.517 C 276.098 170.619,277.910 173.519,278.871 174.961 C 279.832 176.403,280.619 177.671,280.619 177.778 C 280.619 177.885,281.329 179.080,282.196 180.433 C 284.360 183.810,284.348 183.656,282.699 186.715 C 281.392 189.140,276.134 197.163,275.543 197.634 C 275.418 197.734,274.311 199.045,273.084 200.546 C 270.668 203.503,264.347 209.789,260.681 212.881 C 255.410 217.328,240.853 226.173,240.079 225.399 C 239.955 225.275,239.856 218.200,239.858 209.675 C 239.862 194.619,239.839 194.111,239.058 191.889 C 237.378 187.106,237.261 188.172,237.295 207.922 C 237.327 226.729,237.288 227.230,235.771 227.584 C 235.314 227.691,233.553 228.271,231.856 228.873 C 230.159 229.476,228.644 229.890,228.489 229.794 C 228.334 229.699,228.207 209.004,228.207 183.806 L 228.207 137.992 227.241 135.763 C 226.578 134.234,226.180 133.684,225.973 134.010 C 225.807 134.272,225.668 156.143,225.665 182.614 L 225.660 230.741 224.659 230.968 C 224.108 231.093,222.757 231.404,221.656 231.658 C 219.697 232.111,217.202 232.530,211.941 233.289 C 210.501 233.497,208.003 233.667,206.390 233.667 L 203.458 233.667 203.430 146.406 C 203.415 98.412,203.392 58.080,203.378 56.779 C 203.331 52.165,203.383 51.810,203.992 52.615 C 204.286 53.003,204.532 53.438,204.538 53.581 M109.918 261.056 C 109.919 261.306,110.737 262.887,111.738 264.569 C 112.739 266.251,113.558 267.674,113.558 267.731 C 113.558 267.787,114.748 269.850,116.203 272.315 C 117.658 274.780,119.173 277.419,119.570 278.178 C 120.884 280.696,121.762 281.575,122.418 281.030 C 123.480 280.148,123.427 279.307,122.170 277.120 C 121.492 275.942,119.259 272.029,117.208 268.426 C 115.157 264.823,113.226 261.588,112.916 261.237 C 112.261 260.497,109.918 260.354,109.918 261.056 M86.806 268.102 C 71.320 271.988,69.000 293.681,83.410 299.857 C 89.135 302.311,98.817 301.083,98.817 297.902 C 98.817 296.568,98.080 296.537,94.813 297.734 C 88.321 300.112,80.815 297.088,78.012 290.966 C 72.616 279.180,83.784 266.669,95.424 271.460 C 97.926 272.490,98.778 272.399,98.930 271.089 C 99.047 270.079,99.109 270.124,95.541 268.611 C 94.427 268.139,88.124 267.771,86.806 268.102 M283.167 268.207 C 278.905 269.113,276.462 271.908,276.470 275.869 C 276.478 279.891,278.383 281.787,285.039 284.400 C 291.622 286.984,293.621 289.449,292.558 293.672 C 291.255 298.850,284.533 300.260,277.990 296.728 C 276.546 295.949,276.179 295.876,275.697 296.276 C 273.067 298.459,282.651 302.275,287.620 301.022 C 293.023 299.661,295.359 296.898,295.359 291.871 C 295.359 286.921,293.392 284.837,285.919 281.872 C 279.112 279.171,277.197 275.513,280.786 272.066 C 282.456 270.461,287.200 270.094,290.908 271.283 C 293.305 272.051,294.086 271.906,294.086 270.690 C 294.086 269.110,286.757 267.443,283.167 268.207 M318.072 268.245 C 313.806 268.976,311.032 272.000,311.061 275.887 C 311.093 280.143,312.715 281.581,321.540 285.186 C 327.198 287.497,329.028 291.480,326.314 295.580 C 323.914 299.207,319.073 299.692,313.089 296.905 C 310.662 295.775,309.736 295.910,309.736 297.392 C 309.736 298.211,313.991 300.303,317.071 300.999 C 325.589 302.925,332.776 295.364,329.352 288.080 C 328.043 285.296,326.383 284.177,319.588 281.502 C 313.249 279.006,311.746 274.543,316.225 271.514 C 318.279 270.124,325.207 270.392,326.989 271.930 C 327.536 272.401,328.662 271.550,328.662 270.666 C 328.662 269.093,322.005 267.571,318.072 268.245 M138.765 268.699 C 138.567 268.949,137.951 269.973,137.396 270.974 C 136.840 271.975,135.976 273.530,135.475 274.431 C 134.974 275.332,134.260 276.504,133.888 277.035 C 133.516 277.567,133.212 278.082,133.212 278.181 C 133.212 278.279,131.899 280.629,130.293 283.402 L 127.375 288.444 127.473 294.449 L 127.571 300.455 128.662 300.455 L 129.754 300.455 129.936 294.631 C 130.102 289.337,130.193 288.704,130.937 287.660 C 131.388 287.028,131.756 286.417,131.756 286.302 C 131.756 286.187,132.329 285.196,133.030 284.101 C 133.731 283.006,134.304 282.041,134.304 281.956 C 134.304 281.798,139.780 272.289,141.139 270.089 C 141.563 269.403,141.826 268.707,141.725 268.543 C 141.435 268.074,139.164 268.193,138.765 268.699 M159.948 268.699 C 159.852 268.949,159.816 276.197,159.869 284.804 L 159.964 300.455 161.237 300.455 L 162.511 300.455 162.693 293.904 L 162.875 287.352 167.061 287.164 C 170.088 287.028,171.623 286.790,172.607 286.306 C 179.659 282.833,179.666 272.218,172.619 269.101 C 170.340 268.094,160.303 267.775,159.948 268.699 M196.542 284.440 L 196.542 300.637 197.816 300.637 L 199.090 300.637 199.095 294.722 C 199.102 286.559,198.767 287.171,203.227 287.165 C 207.435 287.158,209.189 286.680,211.199 284.994 C 215.007 281.797,215.563 275.343,212.353 271.593 C 211.155 270.193,210.568 269.821,207.717 268.659 C 207.123 268.417,204.586 268.244,201.621 268.244 L 196.542 268.244 196.542 284.440 M236.745 268.699 C 236.649 268.949,236.613 276.197,236.666 284.804 L 236.761 300.455 247.052 300.552 C 256.339 300.639,257.366 300.590,257.574 300.047 C 258.189 298.445,257.584 298.329,248.751 298.349 C 244.158 298.360,240.114 298.218,239.763 298.034 C 239.080 297.675,238.757 272.301,239.422 271.253 C 239.632 270.924,241.999 270.779,248.386 270.707 C 257.580 270.604,258.205 270.477,257.576 268.839 C 257.275 268.053,237.045 267.917,236.745 268.699 M171.205 271.344 C 175.994 273.344,176.537 280.491,172.122 283.415 C 170.707 284.353,170.240 284.451,166.634 284.564 L 162.693 284.687 162.693 277.739 L 162.693 270.792 166.289 270.792 C 168.678 270.792,170.327 270.977,171.205 271.344 M207.508 271.308 C 211.939 273.171,213.168 278.962,209.873 282.453 C 208.317 284.101,206.811 284.571,202.828 284.651 L 199.272 284.724 199.168 278.577 C 199.027 270.185,198.738 270.792,202.874 270.792 C 204.995 270.792,206.744 270.986,207.508 271.308 M245.457 284.045 C 244.796 285.768,245.177 285.896,250.960 285.896 L 256.415 285.896 256.415 284.804 L 256.415 283.712 251.039 283.612 C 246.582 283.528,245.627 283.602,245.457 284.045 M208.705 293.488 C 208.600 293.760,209.482 295.521,210.664 297.401 C 211.846 299.281,213.564 302.047,214.481 303.549 C 217.296 308.156,219.009 309.548,219.688 307.778 C 219.863 307.321,216.652 301.677,212.675 295.450 C 211.079 292.952,209.256 292.051,208.705 293.488  M -25 0 L -5 0 L -5 20 L -25 20 Z M 405 0 L 425 0 L 425 20 L 405 20 Z" stroke="none" fill="#f6f6f6" fill-rule="evenodd" transform="translate(950,0)"></path><path id="path3" d=" M -25 0 L -5 0 L -5 20 L -25 20 Z M 405 0 L 425 0 L 425 20 L 405 20 Z" stroke="none" fill="#dcdcdc" fill-rule="evenodd" transform="translate(30,423)"></path><path id="path4" d="M36.033 176.888 L 36.033 342.857 202.002 342.857 L 367.971 342.857 367.971 176.888 L 367.971 10.919 202.002 10.919 L 36.033 10.919 36.033 176.888 M367.607 176.888 L 367.607 342.493 202.002 342.493 L 36.397 342.493 36.397 176.888 L 36.397 11.283 202.002 11.283 L 367.607 11.283 367.607 176.888  M -25 0 L -5 0 L -5 20 L -25 20 Z M 405 0 L 425 0 L 425 20 L 405 20 Z" stroke="none" fill="#3c8884" fill-rule="evenodd" transform="translate(490,423)"></path></g></svg>