<?xml version="1.0" encoding="UTF-8"?>
<svg id="Layer_1" data-name="Layer 1" xmlns="http://www.w3.org/2000/svg" viewBox="0 0 900 900">
  <defs>
    <style>
      .cls-1 {
        fill: #fff;
      }
    </style>
  </defs>
  <path class="cls-1" d="m450,94.3c-142.45,0-258.34,115.89-258.34,258.34s115.89,258.34,258.34,258.34,258.34-115.89,258.34-258.34S592.45,94.3,450,94.3Zm252.56,258.34c0,39.54-9.14,76.98-25.41,110.34l-18.97-30.97c9.66-25.33,14.57-52.02,14.57-79.37,0-100.23-67.46-188.61-164.04-214.93-2.52-.66-4.87-1.03-7.54-1.28l6.03,6.85c94.07,25.63,159.78,111.72,159.78,209.35,0,25.14-4.24,49.7-12.62,73.11l-148.05-241.75c33.45,11.19,63.4,32.56,84.96,60.74,23.87,31.2,36.48,68.51,36.48,107.9l5.78,8.37v-8.37c0-40.67-13.03-79.19-37.67-111.41-23.63-30.89-57.03-53.83-94.14-64.71l-46.78-76.37c136.99,2.64,247.63,114.89,247.63,252.5ZM444.8,100.14l-46.83,76.46c-37.04,10.94-70.35,33.9-93.92,64.76-24.58,32.19-37.57,70.67-37.57,111.28v8.9l5.78-8.9c0-39.33,12.58-76.6,36.39-107.77,21.49-28.15,51.36-49.52,84.73-60.76l-123.23,201.22h0s-24.59,40.16-24.59,40.16c-8.31-23.31-12.53-47.79-12.53-72.84,0-97.38,65.49-183.42,159.26-209.21l7.35-6.99c-3.23.22-6.24.64-8.88,1.42-96.27,26.48-163.51,114.81-163.51,214.78,0,27.27,4.88,53.88,14.47,79.11l-18.99,31c-16.2-33.3-25.3-70.66-25.3-110.11,0-137.52,110.49-249.72,247.36-252.5Zm-219.01,368.67l18.54-30.27h0s3.05-4.98,3.05-4.98h0s154.93-253,154.93-253h0s.43-.7.43-.7l11.21-18.3v405.6l5.78,14.8V152.13l27.38-44.7v497.74c-21.43-.24-42.22-3.16-62.07-8.45v-265.54l-5.78,14.45v249.48c-8.74-2.55-17.28-5.57-25.6-9.01v-104.33l-5.78,14.45v87.4c-52.53-23.31-95.68-64.03-122.09-114.8Zm326.32,114.8v-87.4l-5.78-14.45v104.33c-8.32,3.45-16.86,6.46-25.6,9.01v-249.48l-5.78-14.45v265.54c-19.84,5.29-40.64,8.2-62.07,8.45V107.86l26.04,42.52v431.59l5.78-14.8V159.81l8.78,14.33h0l3.88,6.33h0s17.62,28.77,17.62,28.77l109.88,179.43h0s30.69,50.12,30.69,50.12h0s18.53,30.25,18.53,30.25c-26.42,50.66-69.52,91.29-121.97,114.57Z"/>
  <g>
    <path class="cls-1" d="m158.78,779.18c-3.58,1.19-7.5,1.79-11.78,1.79-5.76,0-10.98-1.01-15.66-3.02-4.69-2.01-8.7-4.79-12.03-8.32-3.33-3.53-5.88-7.65-7.65-12.33-1.77-4.68-2.65-9.66-2.65-14.92s.98-10.65,2.96-15.42c1.97-4.77,4.71-8.94,8.2-12.52,3.5-3.58,7.54-6.37,12.15-8.39,4.61-2.01,9.5-3.02,14.68-3.02,4.03,0,7.85.61,11.47,1.85,3.62,1.23,6.87,2.76,9.74,4.56l2.59-5.55c-3.29-1.97-6.95-3.58-10.98-4.81-4.03-1.23-8.35-1.85-12.95-1.85-6.25,0-12.04,1.15-17.39,3.46-5.35,2.3-10.03,5.51-14.06,9.62-4.03,4.11-7.15,8.92-9.37,14.43-2.22,5.51-3.33,11.47-3.33,17.88,0,6.01,1.05,11.66,3.15,16.96,2.09,5.3,5.08,9.99,8.94,14.06,3.86,4.07,8.51,7.28,13.93,9.62,5.43,2.34,11.47,3.52,18.13,3.52,3.46,0,6.66-.31,9.62-.93,2.96-.62,5.67-1.46,8.14-2.53,2.47-1.07,4.64-2.18,6.54-3.33l-2.84-5.3c-2.8,1.81-5.98,3.31-9.56,4.5Z"/>
    <polygon class="cls-1" points="250.2 749.65 248.1 753.13 248.1 754.58 248.1 785.78 254.14 785.78 254.14 754.58 286.83 698.22 279.55 698.22 250.2 749.65"/>
    <polygon class="cls-1" points="199.99 677.85 232.67 734.21 236.41 728.37 207.38 677.85 199.99 677.85"/>
    <path class="cls-1" d="m371.1,700.99c-4.07-1.85-8.82-2.77-14.25-2.77h-20.23v87.57h6.04v-36.75h13.56c4.93,0,9.15-.74,12.64-2.22,3.49-1.48,6.37-3.45,8.63-5.92,2.26-2.47,3.9-5.24,4.93-8.33,1.03-3.08,1.54-6.27,1.54-9.56,0-5.51-1.13-10.09-3.39-13.75-2.26-3.66-5.42-6.42-9.49-8.26Zm5.92,28.43c-.7,2.3-1.85,4.5-3.45,6.6-1.6,2.09-3.83,3.82-6.66,5.18-2.84,1.36-6.4,2.04-10.67,2.04h-13.56v-39.22h14.8c3.29,0,6.21.47,8.76,1.42,2.55.95,4.71,2.26,6.47,3.95,1.77,1.69,3.1,3.68,4.01,5.98.9,2.3,1.36,4.85,1.36,7.65,0,1.97-.35,4.11-1.05,6.41Z"/>
    <path class="cls-1" d="m477.07,740.89c2.22-2.47,3.82-5.24,4.81-8.33.99-3.08,1.48-6.27,1.48-9.56,0-4.36-.82-8.1-2.47-11.23-1.64-3.12-3.8-5.69-6.47-7.71-2.67-2.01-5.63-3.49-8.88-4.44-3.25-.94-6.52-1.42-9.81-1.42h-19.98v87.57h6.04v-36.75h13.56c5.18,0,9.54-.74,13.07-2.22,3.53-1.48,6.41-3.45,8.63-5.92Zm-22.08,2.34h-13.19v-39.22h14.8c3.12,0,5.96.51,8.51,1.54,2.55,1.03,4.73,2.43,6.54,4.19,1.81,1.77,3.19,3.8,4.13,6.11.94,2.31,1.42,4.77,1.42,7.4,0,2.22-.35,4.5-1.05,6.84-.7,2.34-1.87,4.5-3.51,6.47-1.65,1.97-3.91,3.58-6.79,4.81-2.88,1.23-6.5,1.85-10.85,1.85Z"/>
    <polygon class="cls-1" points="467.63 765.99 492.05 805.7 499.08 805.7 474.79 765.87 467.63 765.99"/>
    <path class="cls-1" d="m695.8,744.71c-2.3-1.89-4.87-3.49-7.71-4.81-2.84-1.31-5.69-2.51-8.57-3.58-3.62-1.4-7.03-2.86-10.23-4.38-3.21-1.52-5.8-3.37-7.77-5.55-1.97-2.18-2.96-4.91-2.96-8.2,0-4.36,1.73-7.97,5.18-10.86,3.46-2.87,8.06-4.31,13.81-4.31,3.7,0,7.4.54,11.1,1.6,3.7,1.07,6.82,2.22,9.37,3.46l2.34-4.69c-3.13-1.64-6.8-3-11.04-4.07-4.24-1.07-8.41-1.6-12.52-1.6-4.68.08-8.86,1.01-12.52,2.77-3.66,1.77-6.56,4.22-8.7,7.34-2.14,3.13-3.21,6.78-3.21,10.98,0,3.37.68,6.25,2.04,8.63,1.36,2.38,3.19,4.42,5.49,6.11,2.3,1.69,4.85,3.12,7.65,4.32,2.8,1.19,5.59,2.33,8.39,3.39,3.62,1.32,7.03,2.8,10.24,4.44,3.21,1.64,5.84,3.76,7.89,6.35,2.06,2.59,3.09,5.98,3.09,10.18s-1.09,7.95-3.27,10.79c-2.18,2.84-4.93,4.95-8.26,6.35-3.33,1.4-6.76,2.1-10.3,2.1-3.04,0-6.09-.45-9.13-1.36-3.04-.91-5.86-2.01-8.45-3.33-2.59-1.31-4.79-2.63-6.6-3.95l-2.84,4.93c1.56.98,3.68,2.2,6.35,3.64,2.67,1.44,5.79,2.69,9.37,3.76,3.58,1.07,7.55,1.6,11.9,1.6,5.43,0,10.2-1.03,14.31-3.09,4.11-2.05,7.32-4.95,9.62-8.69,2.3-3.74,3.46-8.04,3.46-12.89,0-4.11-.68-7.56-2.04-10.36-1.36-2.8-3.19-5.14-5.49-7.03Z"/>
    <path class="cls-1" d="m795.24,751.74c-1.36-2.8-3.19-5.14-5.49-7.03-2.3-1.89-4.87-3.49-7.71-4.81-2.84-1.31-5.69-2.51-8.57-3.58-3.62-1.4-7.03-2.86-10.23-4.38-3.21-1.52-5.8-3.37-7.77-5.55-1.97-2.18-2.96-4.91-2.96-8.2,0-4.36,1.73-7.97,5.18-10.86,3.46-2.87,8.06-4.31,13.81-4.31,3.7,0,7.4.54,11.1,1.6,3.7,1.07,6.82,2.22,9.37,3.46l2.34-4.69c-3.13-1.64-6.8-3-11.04-4.07-4.24-1.07-8.41-1.6-12.52-1.6-4.68.08-8.86,1.01-12.52,2.77-3.66,1.77-6.56,4.22-8.7,7.34-2.14,3.13-3.21,6.78-3.21,10.98,0,3.37.68,6.25,2.04,8.63,1.36,2.38,3.19,4.42,5.49,6.11,2.3,1.69,4.85,3.12,7.65,4.32,2.8,1.19,5.59,2.33,8.39,3.39,3.62,1.32,7.03,2.8,10.24,4.44,3.21,1.64,5.84,3.76,7.89,6.35,2.06,2.59,3.09,5.98,3.09,10.18s-1.09,7.95-3.27,10.79c-2.18,2.84-4.93,4.95-8.26,6.35-3.33,1.4-6.76,2.1-10.3,2.1-3.04,0-6.09-.45-9.13-1.36-3.04-.91-5.86-2.01-8.45-3.33-2.59-1.31-4.79-2.63-6.6-3.95l-2.84,4.93c1.56.98,3.68,2.2,6.35,3.64,2.67,1.44,5.79,2.69,9.37,3.76,3.58,1.07,7.55,1.6,11.9,1.6,5.43,0,10.2-1.03,14.31-3.09,4.11-2.05,7.32-4.95,9.62-8.69,2.3-3.74,3.46-8.04,3.46-12.89,0-4.11-.68-7.56-2.04-10.36Z"/>
    <polygon class="cls-1" points="544.63 704.02 544.63 785.78 600.37 785.78 600.37 779.99 550.67 779.99 550.67 745.83 550.68 740.03 550.68 738.85 550.67 738.8 550.68 704.02 600.37 704.02 600.37 698.22 544.63 698.22 544.63 704.02"/>
    <rect class="cls-1" x="567.71" y="740.04" width="30.2" height="5.8"/>
  </g>
</svg>