<?xml version="1.0" encoding="UTF-8"?>
<svg id="Layer_1" data-name="Layer 1" xmlns="http://www.w3.org/2000/svg" viewBox="0 0 900 900">
  <defs>
    <style>
      .cls-1 {
        fill: #2e423d;
      }
    </style>
  </defs>
  <path class="cls-1" d="m450,81.05c-203.44,0-368.95,165.51-368.95,368.95s165.51,368.95,368.95,368.95,368.95-165.51,368.95-368.95S653.44,81.05,450,81.05Zm360.69,368.95c0,56.47-13.06,109.94-36.29,157.58l-27.09-44.23c13.8-36.17,20.81-74.29,20.81-113.35,0-143.14-96.34-269.36-234.27-306.95-3.6-.95-6.96-1.48-10.77-1.83l8.6,9.79c134.35,36.61,228.18,159.56,228.18,298.98,0,35.9-6.06,70.98-18.03,104.41l-211.43-345.25c47.77,15.99,90.54,46.49,121.34,86.74,34.09,44.56,52.1,97.84,52.1,154.1l8.25,11.96v-11.96c0-58.08-18.61-113.1-53.8-159.11-33.75-44.11-81.44-76.88-134.44-92.42l-66.8-109.07c195.65,3.77,353.64,164.07,353.64,360.6ZM442.57,89.4l-66.88,109.2c-52.89,15.62-100.48,48.41-134.13,92.48-35.1,45.97-53.66,100.93-53.66,158.92v12.7l8.25-12.7c0-56.17,17.97-109.39,51.96-153.91,30.7-40.2,73.36-70.72,121-86.77l-175.99,287.37h0s-35.12,57.35-35.12,57.35c-11.87-33.3-17.89-68.25-17.89-104.03,0-139.08,93.53-261.94,227.45-298.78l10.5-9.99c-4.61.31-8.92.92-12.69,2.03-137.49,37.82-233.52,163.96-233.52,306.74,0,38.95,6.96,76.95,20.66,112.98l-27.12,44.27c-23.13-47.55-36.12-100.91-36.12-157.25,0-196.4,157.79-356.63,353.26-360.6ZM129.8,615.91l26.48-43.23h0s4.35-7.11,4.35-7.11h0s221.27-361.32,221.27-361.32h0s.61-1,.61-1l16.01-26.14v579.26l8.25,21.13V163.64l39.1-63.83v710.83c-30.6-.35-60.3-4.51-88.64-12.06v-379.23l-8.25,20.63v356.29c-12.48-3.65-24.68-7.95-36.56-12.87v-148.99l-8.25,20.63v124.82c-75.02-33.3-136.64-91.45-174.37-163.95Zm466.04,163.95v-124.82l-8.25-20.63v148.99c-11.88,4.92-24.08,9.23-36.56,12.87v-356.29l-8.25-20.63v379.23c-28.34,7.55-58.04,11.72-88.64,12.06V100.41l37.19,60.72v616.36l8.25-21.13V174.62l12.54,20.47h0l5.54,9.04h0s25.16,41.09,25.16,41.09l156.92,256.25h0s43.84,71.58,43.84,71.58h0s26.46,43.19,26.46,43.19c-37.74,72.35-99.29,130.38-174.19,163.63Z"/>
</svg>