<?xml version="1.0" encoding="UTF-8"?>
<svg id="Layer_1" data-name="Layer 1" xmlns="http://www.w3.org/2000/svg" viewBox="0 0 900 165.17">
  <defs>
    <style>
      .cls-1 {
        fill: #332f2e;
      }
    </style>
  </defs>
  <path class="cls-1" d="m73.78,130.91c-4.62,1.54-9.7,2.31-15.22,2.31-7.44,0-14.18-1.3-20.23-3.91-6.06-2.6-11.23-6.19-15.54-10.75-4.3-4.57-7.59-9.88-9.88-15.93-2.29-6.05-3.42-12.48-3.42-19.28s1.27-13.76,3.83-19.92c2.55-6.16,6.08-11.55,10.59-16.17,4.52-4.62,9.74-8.23,15.69-10.83,5.95-2.6,12.27-3.91,18.96-3.91,5.2,0,10.15.79,14.82,2.39,4.67,1.59,8.87,3.56,12.59,5.9l3.35-7.17c-4.25-2.55-8.98-4.62-14.18-6.21-5.21-1.59-10.78-2.39-16.73-2.39-8.07,0-15.56,1.49-22.46,4.46-6.91,2.97-12.96,7.11-18.16,12.43-5.2,5.31-9.24,11.52-12.11,18.64-2.87,7.12-4.3,14.82-4.3,23.1,0,7.76,1.36,15.06,4.07,21.91,2.7,6.85,6.56,12.9,11.55,18.16,4.99,5.26,10.99,9.4,18,12.43,7.01,3.03,14.82,4.54,23.42,4.54,4.46,0,8.61-.4,12.43-1.2,3.82-.8,7.33-1.88,10.52-3.27,3.19-1.38,6-2.81,8.44-4.3l-3.66-6.85c-3.62,2.34-7.73,4.28-12.35,5.82Z"/>
  <polygon class="cls-1" points="191.88 92.75 189.17 97.25 189.17 99.13 189.17 139.44 196.98 139.44 196.98 99.13 239.2 26.32 229.8 26.32 191.88 92.75"/>
  <polygon class="cls-1" points="127.02 0 169.24 72.81 174.07 65.27 136.57 0 127.02 0"/>
  <path class="cls-1" d="m348.07,29.9c-5.26-2.39-11.4-3.58-18.4-3.58h-26.13v113.12h7.81v-47.48h17.52c6.37,0,11.81-.96,16.33-2.87,4.51-1.91,8.23-4.46,11.15-7.65,2.92-3.19,5.04-6.77,6.37-10.76,1.33-3.98,1.99-8.1,1.99-12.35,0-7.11-1.46-13.04-4.38-17.76-2.92-4.73-7.01-8.29-12.26-10.68Zm7.65,36.73c-.9,2.97-2.39,5.82-4.46,8.53-2.07,2.7-4.94,4.94-8.61,6.69-3.66,1.75-8.26,2.63-13.78,2.63h-17.52v-50.66h19.12c4.25,0,8.02.61,11.32,1.83,3.29,1.22,6.08,2.92,8.36,5.1,2.28,2.18,4.01,4.76,5.18,7.73,1.16,2.97,1.75,6.27,1.75,9.88,0,2.55-.46,5.31-1.36,8.28Z"/>
  <path class="cls-1" d="m484.97,81.45c2.87-3.19,4.94-6.77,6.21-10.76,1.28-3.98,1.91-8.1,1.91-12.35,0-5.63-1.06-10.46-3.19-14.5-2.12-4.03-4.91-7.35-8.36-9.96-3.45-2.6-7.28-4.51-11.47-5.74-4.2-1.22-8.42-1.83-12.67-1.83h-25.81v113.12h7.81v-47.48h17.52c6.7,0,12.32-.96,16.89-2.87,4.57-1.91,8.28-4.46,11.15-7.65Zm-28.52,3.03h-17.05v-50.66h19.12c4.03,0,7.7.66,10.99,1.99,3.29,1.33,6.11,3.13,8.45,5.41,2.33,2.29,4.12,4.91,5.34,7.89,1.22,2.98,1.83,6.16,1.83,9.56,0,2.87-.46,5.82-1.36,8.84-.9,3.03-2.41,5.82-4.54,8.36-2.13,2.55-5.05,4.62-8.77,6.21-3.72,1.59-8.39,2.39-14.02,2.39Z"/>
  <polygon class="cls-1" points="472.78 113.87 504.33 165.17 513.41 165.17 482.02 113.71 472.78 113.87"/>
  <path class="cls-1" d="m767.54,86.38c-2.97-2.44-6.29-4.51-9.96-6.21-3.66-1.7-7.36-3.24-11.07-4.62-4.67-1.8-9.08-3.69-13.22-5.65-4.15-1.96-7.49-4.36-10.04-7.17-2.55-2.81-3.83-6.34-3.83-10.59,0-5.63,2.23-10.3,6.69-14.03,4.46-3.71,10.41-5.57,17.84-5.57,4.78,0,9.56.69,14.34,2.07,4.78,1.38,8.82,2.87,12.11,4.46l3.03-6.06c-4.04-2.12-8.79-3.87-14.26-5.26-5.47-1.38-10.86-2.07-16.17-2.07-6.05.11-11.44,1.3-16.17,3.58-4.73,2.29-8.47,5.45-11.23,9.48-2.76,4.04-4.14,8.76-4.14,14.18,0,4.36.88,8.07,2.63,11.15,1.75,3.08,4.12,5.71,7.09,7.89,2.97,2.18,6.27,4.03,9.88,5.57,3.61,1.54,7.22,3,10.83,4.38,4.67,1.7,9.08,3.61,13.23,5.74,4.14,2.12,7.54,4.86,10.19,8.2,2.66,3.35,3.99,7.73,3.99,13.15s-1.41,10.27-4.22,13.94c-2.82,3.66-6.37,6.4-10.68,8.21-4.3,1.81-8.73,2.71-13.3,2.71-3.93,0-7.87-.58-11.79-1.75-3.93-1.17-7.57-2.6-10.91-4.3-3.35-1.7-6.19-3.4-8.53-5.1l-3.66,6.37c2.02,1.27,4.75,2.84,8.21,4.7,3.45,1.86,7.48,3.48,12.1,4.86,4.62,1.38,9.75,2.07,15.38,2.07,7.01,0,13.17-1.33,18.48-3.99,5.31-2.65,9.45-6.4,12.43-11.23,2.97-4.83,4.46-10.38,4.46-16.65,0-5.31-.88-9.77-2.63-13.38-1.75-3.61-4.12-6.64-7.09-9.08Z"/>
  <path class="cls-1" d="m896.01,95.46c-1.75-3.61-4.12-6.64-7.09-9.08-2.97-2.44-6.29-4.51-9.96-6.21-3.66-1.7-7.36-3.24-11.07-4.62-4.67-1.8-9.08-3.69-13.22-5.65-4.15-1.96-7.49-4.36-10.04-7.17-2.55-2.81-3.83-6.34-3.83-10.59,0-5.63,2.23-10.3,6.69-14.03,4.46-3.71,10.41-5.57,17.84-5.57,4.78,0,9.56.69,14.34,2.07,4.78,1.38,8.82,2.87,12.11,4.46l3.03-6.06c-4.04-2.12-8.79-3.87-14.26-5.26-5.47-1.38-10.86-2.07-16.17-2.07-6.05.11-11.44,1.3-16.17,3.58-4.73,2.29-8.47,5.45-11.23,9.48-2.76,4.04-4.14,8.76-4.14,14.18,0,4.36.88,8.07,2.63,11.15,1.75,3.08,4.12,5.71,7.09,7.89,2.97,2.18,6.27,4.03,9.88,5.57,3.61,1.54,7.22,3,10.83,4.38,4.67,1.7,9.08,3.61,13.23,5.74,4.14,2.12,7.54,4.86,10.19,8.2,2.66,3.35,3.99,7.73,3.99,13.15s-1.41,10.27-4.22,13.94c-2.82,3.66-6.37,6.4-10.68,8.21-4.3,1.81-8.73,2.71-13.3,2.71-3.93,0-7.87-.58-11.79-1.75-3.93-1.17-7.57-2.6-10.91-4.3-3.35-1.7-6.19-3.4-8.53-5.1l-3.66,6.37c2.02,1.27,4.75,2.84,8.21,4.7,3.45,1.86,7.48,3.48,12.1,4.86,4.62,1.38,9.75,2.07,15.38,2.07,7.01,0,13.17-1.33,18.48-3.99,5.31-2.65,9.45-6.4,12.43-11.23,2.97-4.83,4.46-10.38,4.46-16.65,0-5.31-.88-9.77-2.63-13.38Z"/>
  <polygon class="cls-1" points="572.25 33.81 572.25 139.44 644.26 139.44 644.26 131.95 580.05 131.95 580.05 87.82 580.06 80.33 580.06 78.81 580.05 78.74 580.06 33.81 644.26 33.81 644.26 26.32 572.25 26.32 572.25 33.81"/>
  <rect class="cls-1" x="602.06" y="80.35" width="39.01" height="7.49"/>
</svg>