<?xml version="1.0" encoding="UTF-8"?>
<svg id="Layer_1" data-name="Layer 1" xmlns="http://www.w3.org/2000/svg" viewBox="0 0 900 261.79">
  <g>
    <path d="m73.21,131.11c-4.63,1.54-9.71,2.32-15.24,2.32-7.45,0-14.2-1.3-20.26-3.91-6.07-2.61-11.25-6.2-15.56-10.77-4.3-4.57-7.6-9.89-9.89-15.96-2.29-6.06-3.43-12.5-3.43-19.31s1.27-13.78,3.83-19.95c2.55-6.17,6.09-11.57,10.61-16.2,4.52-4.63,9.76-8.24,15.72-10.85,5.96-2.61,12.29-3.91,18.99-3.91,5.21,0,10.16.8,14.84,2.39,4.68,1.6,8.88,3.57,12.61,5.91l3.35-7.18c-4.26-2.55-9-4.63-14.2-6.22-5.22-1.6-10.8-2.4-16.76-2.4-8.08,0-15.58,1.49-22.5,4.47-6.92,2.98-12.98,7.13-18.19,12.44-5.21,5.32-9.25,11.54-12.13,18.67-2.87,7.13-4.31,14.84-4.31,23.14,0,7.77,1.36,15.08,4.07,21.95,2.71,6.86,6.57,12.92,11.57,18.19,5,5.27,11.01,9.41,18.03,12.44,7.02,3.03,14.84,4.55,23.46,4.55,4.47,0,8.62-.4,12.45-1.2,3.83-.8,7.34-1.89,10.53-3.27,3.19-1.38,6.01-2.82,8.46-4.31l-3.67-6.86c-3.62,2.34-7.74,4.29-12.37,5.82Z"/>
    <polygon points="191.49 92.9 188.78 97.4 188.78 99.28 188.78 139.65 196.59 139.65 196.59 99.28 238.88 26.36 229.46 26.36 191.49 92.9"/>
    <polygon points="126.53 0 168.81 72.92 173.65 65.36 136.1 0 126.53 0"/>
    <path d="m347.91,29.95c-5.27-2.39-11.41-3.59-18.43-3.59h-26.17v113.29h7.82v-47.55h17.55c6.38,0,11.83-.96,16.36-2.87,4.52-1.91,8.24-4.47,11.17-7.66,2.92-3.19,5.05-6.78,6.38-10.77,1.33-3.99,1.99-8.11,1.99-12.36,0-7.13-1.46-13.06-4.39-17.79-2.92-4.73-7.02-8.3-12.28-10.69Zm7.66,36.78c-.9,2.98-2.39,5.82-4.47,8.54-2.07,2.71-4.95,4.94-8.62,6.7-3.67,1.76-8.28,2.63-13.8,2.63h-17.55v-50.74h19.15c4.26,0,8.03.61,11.33,1.83,3.29,1.23,6.09,2.93,8.38,5.1,2.28,2.18,4.01,4.77,5.19,7.74,1.17,2.98,1.76,6.28,1.76,9.89,0,2.55-.46,5.32-1.36,8.3Z"/>
    <path d="m485.02,81.57c2.87-3.19,4.94-6.78,6.22-10.77,1.28-3.99,1.91-8.11,1.91-12.36,0-5.64-1.06-10.48-3.19-14.52-2.13-4.04-4.92-7.36-8.38-9.97-3.46-2.6-7.29-4.52-11.49-5.74-4.2-1.22-8.43-1.83-12.69-1.83h-25.85v113.29h7.82v-47.55h17.55c6.71,0,12.34-.96,16.92-2.87,4.57-1.91,8.3-4.47,11.17-7.66Zm-28.57,3.03h-17.07v-50.74h19.15c4.04,0,7.71.66,11.01,1.99,3.3,1.33,6.12,3.14,8.46,5.42,2.34,2.29,4.12,4.92,5.35,7.9,1.22,2.98,1.84,6.17,1.84,9.58,0,2.87-.46,5.82-1.36,8.86-.9,3.03-2.42,5.82-4.55,8.38-2.13,2.55-5.06,4.63-8.78,6.22-3.72,1.6-8.4,2.4-14.04,2.4Z"/>
    <polygon points="472.82 114.04 504.41 165.42 513.5 165.42 482.07 113.88 472.82 114.04"/>
    <path d="m768.02,86.51c-2.98-2.44-6.3-4.52-9.97-6.22-3.67-1.7-7.37-3.25-11.09-4.63-4.68-1.81-9.09-3.7-13.24-5.66-4.15-1.97-7.5-4.36-10.05-7.18-2.55-2.82-3.83-6.35-3.83-10.61,0-5.64,2.24-10.32,6.7-14.05,4.47-3.72,10.42-5.58,17.87-5.58,4.79,0,9.58.69,14.36,2.07,4.79,1.39,8.83,2.87,12.13,4.47l3.03-6.07c-4.05-2.13-8.8-3.88-14.28-5.27-5.48-1.38-10.88-2.07-16.2-2.07-6.06.11-11.46,1.31-16.2,3.59-4.73,2.29-8.48,5.45-11.25,9.49-2.77,4.05-4.15,8.78-4.15,14.2,0,4.36.88,8.09,2.63,11.17,1.76,3.08,4.12,5.72,7.1,7.9,2.98,2.18,6.28,4.04,9.89,5.58,3.62,1.54,7.23,3.01,10.85,4.39,4.68,1.7,9.1,3.62,13.25,5.74,4.15,2.13,7.55,4.87,10.21,8.22,2.66,3.35,3.99,7.74,3.99,13.17s-1.41,10.29-4.23,13.96c-2.82,3.67-6.38,6.41-10.69,8.22-4.31,1.81-8.75,2.71-13.32,2.71-3.94,0-7.88-.59-11.81-1.76-3.93-1.17-7.58-2.61-10.93-4.31-3.35-1.7-6.2-3.4-8.54-5.1l-3.67,6.38c2.02,1.27,4.76,2.85,8.22,4.71,3.46,1.86,7.5,3.48,12.12,4.87,4.63,1.38,9.76,2.07,15.4,2.07,7.02,0,13.19-1.33,18.51-3.99,5.32-2.65,9.47-6.41,12.44-11.25,2.98-4.84,4.47-10.4,4.47-16.68,0-5.31-.88-9.79-2.63-13.4-1.76-3.62-4.13-6.65-7.1-9.1Z"/>
    <path d="m896.69,95.61c-1.76-3.62-4.13-6.65-7.1-9.1-2.98-2.44-6.3-4.52-9.97-6.22-3.67-1.7-7.37-3.25-11.09-4.63-4.68-1.81-9.09-3.7-13.24-5.66-4.15-1.97-7.5-4.36-10.05-7.18-2.55-2.82-3.83-6.35-3.83-10.61,0-5.64,2.24-10.32,6.7-14.05,4.47-3.72,10.42-5.58,17.87-5.58,4.79,0,9.58.69,14.36,2.07,4.79,1.39,8.83,2.87,12.13,4.47l3.03-6.07c-4.05-2.13-8.8-3.88-14.28-5.27-5.48-1.38-10.88-2.07-16.2-2.07-6.06.11-11.46,1.31-16.2,3.59-4.73,2.29-8.48,5.45-11.25,9.49-2.77,4.05-4.15,8.78-4.15,14.2,0,4.36.88,8.09,2.63,11.17,1.76,3.08,4.12,5.72,7.1,7.9,2.98,2.18,6.28,4.04,9.89,5.58,3.62,1.54,7.23,3.01,10.85,4.39,4.68,1.7,9.1,3.62,13.25,5.74,4.15,2.13,7.55,4.87,10.21,8.22,2.66,3.35,3.99,7.74,3.99,13.17s-1.41,10.29-4.23,13.96c-2.82,3.67-6.38,6.41-10.69,8.22-4.31,1.81-8.75,2.71-13.32,2.71-3.94,0-7.88-.59-11.81-1.76-3.93-1.17-7.58-2.61-10.93-4.31-3.35-1.7-6.2-3.4-8.54-5.1l-3.67,6.38c2.02,1.27,4.76,2.85,8.22,4.71,3.46,1.86,7.5,3.48,12.12,4.87,4.63,1.38,9.76,2.07,15.4,2.07,7.02,0,13.19-1.33,18.51-3.99,5.32-2.65,9.47-6.41,12.44-11.25,2.98-4.84,4.47-10.4,4.47-16.68,0-5.31-.88-9.79-2.63-13.4Z"/>
    <polygon points="572.43 33.86 572.43 139.65 644.55 139.65 644.55 132.15 580.25 132.15 580.25 87.95 580.26 80.45 580.26 78.93 580.25 78.86 580.26 33.86 644.55 33.86 644.55 26.36 572.43 26.36 572.43 33.86"/>
    <rect x="602.29" y="80.47" width="39.07" height="7.5"/>
  </g>
  <g>
    <path d="m158.08,261.79h-6.37v-28.39l-12.85,28.39h-4.68l-12.85-28.39v28.39h-6.11v-35.81h9.05l12.38,27.33,12.37-27.33h9.06v35.81Z"/>
    <path d="m187.64,225.98h6.37v35.81h-6.37v-35.81Z"/>
    <path d="m221.68,243.99c0-11.37,7.8-18.64,20.02-18.64,5,0,9.37,1.21,13.16,3.74l-2.06,5.21c-3.58-2.26-7.11-3.26-10.84-3.26-8.48,0-13.74,5.1-13.74,12.85s5.42,12.84,14.16,12.84c4.21,0,7.95-1.15,11.42-3.52l2.32,5.26c-3.42,2.53-8.53,3.95-14.11,3.95-12.58,0-20.33-7.11-20.33-18.43Z"/>
    <path d="m310.59,261.79l-9.79-14.01h-11.59v14.01h-6.37v-35.81h21.37c7.9,0,12.22,3.85,12.22,10.9,0,5.79-2.94,9.42-8.37,10.53l10.11,14.38h-7.58Zm-21.38-19.49h14.12c4.47,0,6.63-1.78,6.63-5.42s-2.16-5.43-6.63-5.43h-14.12v10.84Z"/>
    <path d="m343.15,243.89c0-11.12,7.85-18.54,19.59-18.54s19.64,7.42,19.64,18.54-7.84,18.53-19.64,18.53-19.59-7.42-19.59-18.53Zm32.7,0c0-7.69-5.26-12.85-13.11-12.85s-13.11,5.15-13.11,12.85,5.32,12.84,13.11,12.84,13.11-5.15,13.11-12.84Z"/>
    <path d="m473.58,261.79l-9.79-14.01h-11.59v14.01h-6.37v-35.81h21.37c7.9,0,12.22,3.85,12.22,10.9,0,5.79-2.94,9.42-8.37,10.53l10.11,14.38h-7.58Zm-21.38-19.49h14.11c4.48,0,6.64-1.78,6.64-5.42s-2.16-5.43-6.64-5.43h-14.11v10.84Z"/>
    <path d="m514.41,231.46v9.53h21.96v5.48h-21.96v9.85h25.38v5.48h-31.75v-35.81h31.75v5.48h-25.38Z"/>
    <path d="m564.66,257.26l2.74-5.05c4.21,3,9.38,4.63,14.9,4.63,6.64,0,10.16-1.79,10.16-5.32,0-2.94-2.58-4.1-10.53-4.68-11.48-.9-15.69-3.69-15.69-10.48s5.84-11.01,15.74-11.01c5.9,0,10.9,1.48,14.96,4.32l-2.53,4.95c-3.48-2.47-7.75-3.69-12.48-3.69-5.74,0-9.21,1.89-9.21,5.16,0,2.95,2.53,4.11,10.48,4.68,11.53.9,15.74,3.69,15.74,10.48,0,7.26-5.84,11.16-16.59,11.16-6.95,0-13-1.79-17.69-5.16Z"/>
    <path d="m624.35,243.89c0-11.12,7.85-18.54,19.59-18.54s19.65,7.42,19.65,18.54-7.85,18.53-19.65,18.53-19.59-7.42-19.59-18.53Zm32.7,0c0-7.69-5.26-12.85-13.11-12.85s-13.11,5.15-13.11,12.85,5.32,12.84,13.11,12.84,13.11-5.15,13.11-12.84Z"/>
    <path d="m718.99,261.79l-9.79-14.01h-11.59v14.01h-6.37v-35.81h21.37c7.9,0,12.22,3.85,12.22,10.9,0,5.79-2.94,9.42-8.37,10.53l10.11,14.38h-7.58Zm-21.38-19.49h14.11c4.48,0,6.64-1.78,6.64-5.42s-2.16-5.43-6.64-5.43h-14.11v10.84Z"/>
    <path d="m784.78,231.46h-13.85v30.33h-6.37v-30.33h-13.85v-5.48h34.07v5.48Z"/>
  </g>
</svg>